<svg width="595" height="842" viewBox="0 0 595 842" fill="none" xmlns="http://www.w3.org/2000/svg">
<rect width="595" height="842" fill="white"/>
<line x1="63" y1="14.5" x2="574" y2="14.5" stroke="black"/>
<line x1="166" y1="37.5" x2="574" y2="37.5" stroke="black" stroke-dasharray="2 2"/>
<line x1="166" y1="73.5" x2="574" y2="73.5" stroke="black" stroke-dasharray="2 2"/>
<line x1="166" y1="108.5" x2="574" y2="108.5" stroke="black" stroke-dasharray="2 2"/>
<line x1="166" y1="152.5" x2="574" y2="152.5" stroke="black" stroke-dasharray="2 2"/>
<line x1="166" y1="175.5" x2="574" y2="175.5" stroke="black" stroke-dasharray="2 2"/>
<line x1="166" y1="198.5" x2="574" y2="198.5" stroke="black" stroke-dasharray="2 2"/>
<line x1="166" y1="221.5" x2="574" y2="221.5" stroke="black" stroke-dasharray="2 2"/>
<line x1="166" y1="244.5" x2="574" y2="244.5" stroke="black" stroke-dasharray="2 2"/>
<line x1="166" y1="267.5" x2="574" y2="267.5" stroke="black" stroke-dasharray="2 2"/>
<line x1="166" y1="290.5" x2="574" y2="290.5" stroke="black" stroke-dasharray="2 2"/>
<line x1="166" y1="313.5" x2="574" y2="313.5" stroke="black" stroke-dasharray="2 2"/>
<line x1="166" y1="336.5" x2="574" y2="336.5" stroke="black" stroke-dasharray="2 2"/>
<line x1="166" y1="359.5" x2="574" y2="359.5" stroke="black" stroke-dasharray="2 2"/>
<line x1="166" y1="382.5" x2="574" y2="382.5" stroke="black" stroke-dasharray="2 2"/>
<line x1="166" y1="405.5" x2="574" y2="405.5" stroke="black" stroke-dasharray="2 2"/>
<line x1="166" y1="428.5" x2="574" y2="428.5" stroke="black" stroke-dasharray="2 2"/>
<line x1="166" y1="451.5" x2="574" y2="451.5" stroke="black" stroke-dasharray="2 2"/>
<line x1="166" y1="474.5" x2="574" y2="474.5" stroke="black" stroke-dasharray="2 2"/>
<line x1="166" y1="497.5" x2="574" y2="497.5" stroke="black" stroke-dasharray="2 2"/>
<line x1="166" y1="520.5" x2="574" y2="520.5" stroke="black" stroke-dasharray="2 2"/>
<line x1="166" y1="543.5" x2="574" y2="543.5" stroke="black" stroke-dasharray="2 2"/>
<line x1="166" y1="566.5" x2="574" y2="566.5" stroke="black" stroke-dasharray="2 2"/>
<line x1="166" y1="589.5" x2="574" y2="589.5" stroke="black" stroke-dasharray="2 2"/>
<line x1="166" y1="612.5" x2="574" y2="612.5" stroke="black" stroke-dasharray="2 2"/>
<line x1="166" y1="635.5" x2="574" y2="635.5" stroke="black" stroke-dasharray="2 2"/>
<line x1="166" y1="658.5" x2="574" y2="658.5" stroke="black" stroke-dasharray="2 2"/>
<line x1="166" y1="681.5" x2="574" y2="681.5" stroke="black" stroke-dasharray="2 2"/>
<line x1="166" y1="704.5" x2="574" y2="704.5" stroke="black" stroke-dasharray="2 2"/>
<line x1="166" y1="727.5" x2="574" y2="727.5" stroke="black" stroke-dasharray="2 2"/>
<line x1="166" y1="750.5" x2="574" y2="750.5" stroke="black" stroke-dasharray="2 2"/>
<line x1="166" y1="773.5" x2="574" y2="773.5" stroke="black" stroke-dasharray="2 2"/>
<line x1="63" y1="794.5" x2="574" y2="794.5" stroke="black"/>
<!--<path d="M573.574 810.324V811H569.789C569.784 810.831 569.811 810.668 569.871 810.512C569.967 810.254 570.121 810 570.332 809.75C570.546 809.5 570.853 809.211 571.254 808.883C571.876 808.372 572.297 807.969 572.516 807.672C572.734 807.372 572.844 807.09 572.844 806.824C572.844 806.546 572.743 806.311 572.543 806.121C572.345 805.928 572.086 805.832 571.766 805.832C571.427 805.832 571.156 805.934 570.953 806.137C570.75 806.34 570.647 806.621 570.645 806.98L569.922 806.906C569.971 806.367 570.158 805.957 570.48 805.676C570.803 805.392 571.237 805.25 571.781 805.25C572.331 805.25 572.766 805.402 573.086 805.707C573.406 806.012 573.566 806.389 573.566 806.84C573.566 807.069 573.52 807.294 573.426 807.516C573.332 807.737 573.176 807.97 572.957 808.215C572.741 808.46 572.38 808.796 571.875 809.223C571.453 809.577 571.182 809.818 571.062 809.945C570.943 810.07 570.844 810.197 570.766 810.324H573.574Z" fill="black"/>-->
<path d="M63.7324 35V27.8418H64.6797V34.1553H68.2051V35H63.7324ZM68.8984 32.4072C68.8984 31.4469 69.1654 30.7357 69.6992 30.2734C70.1452 29.8893 70.6888 29.6973 71.3301 29.6973C72.043 29.6973 72.6257 29.9316 73.0781 30.4004C73.5306 30.8659 73.7568 31.5104 73.7568 32.334C73.7568 33.0013 73.6559 33.527 73.4541 33.9111C73.2555 34.292 72.9642 34.5882 72.5801 34.7998C72.1992 35.0114 71.7826 35.1172 71.3301 35.1172C70.6042 35.1172 70.0166 34.8844 69.5674 34.4189C69.1214 33.9535 68.8984 33.2829 68.8984 32.4072ZM69.8018 32.4072C69.8018 33.0713 69.9466 33.5693 70.2363 33.9014C70.526 34.2301 70.8906 34.3945 71.3301 34.3945C71.7663 34.3945 72.1292 34.2285 72.4189 33.8965C72.7087 33.5645 72.8535 33.0583 72.8535 32.3779C72.8535 31.7367 72.707 31.2516 72.4141 30.9229C72.1243 30.5908 71.763 30.4248 71.3301 30.4248C70.8906 30.4248 70.526 30.5892 70.2363 30.918C69.9466 31.2467 69.8018 31.7432 69.8018 32.4072ZM78.1758 33.1006L79.04 33.2129C78.9456 33.8086 78.7031 34.2757 78.3125 34.6143C77.9251 34.9495 77.4482 35.1172 76.8818 35.1172C76.1722 35.1172 75.6009 34.8861 75.168 34.4238C74.7383 33.9583 74.5234 33.2926 74.5234 32.4268C74.5234 31.8669 74.6162 31.377 74.8018 30.957C74.9873 30.5371 75.2689 30.223 75.6465 30.0146C76.0273 29.8031 76.4408 29.6973 76.8867 29.6973C77.4499 29.6973 77.9105 29.8405 78.2686 30.127C78.6266 30.4102 78.8561 30.8138 78.957 31.3379L78.1025 31.4697C78.0212 31.1214 77.8763 30.8594 77.668 30.6836C77.4629 30.5078 77.2139 30.4199 76.9209 30.4199C76.4782 30.4199 76.1185 30.5794 75.8418 30.8984C75.5651 31.2142 75.4268 31.7155 75.4268 32.4023C75.4268 33.099 75.5602 33.6051 75.8271 33.9209C76.0941 34.2367 76.4424 34.3945 76.8721 34.3945C77.2171 34.3945 77.5052 34.2887 77.7363 34.0771C77.9674 33.8656 78.1139 33.54 78.1758 33.1006ZM83.1758 34.3604C82.8503 34.637 82.5361 34.8324 82.2334 34.9463C81.9339 35.0602 81.6117 35.1172 81.2666 35.1172C80.6969 35.1172 80.2591 34.9788 79.9531 34.7021C79.6471 34.4222 79.4941 34.0658 79.4941 33.6328C79.4941 33.3789 79.5511 33.1478 79.665 32.9395C79.7822 32.7279 79.9336 32.5586 80.1191 32.4316C80.3079 32.3047 80.5195 32.2087 80.7539 32.1436C80.9264 32.098 81.1868 32.054 81.5352 32.0117C82.2448 31.9271 82.7673 31.8262 83.1025 31.709C83.1058 31.5885 83.1074 31.512 83.1074 31.4795C83.1074 31.1214 83.0244 30.8691 82.8584 30.7227C82.6338 30.5241 82.3001 30.4248 81.8574 30.4248C81.444 30.4248 81.138 30.498 80.9395 30.6445C80.7441 30.7878 80.5993 31.0433 80.5049 31.4111L79.6455 31.2939C79.7236 30.9261 79.8522 30.6299 80.0312 30.4053C80.2103 30.1774 80.4691 30.0033 80.8076 29.8828C81.1462 29.7591 81.5384 29.6973 81.9844 29.6973C82.4271 29.6973 82.7868 29.7493 83.0635 29.8535C83.3402 29.9577 83.5436 30.0895 83.6738 30.249C83.804 30.4053 83.8952 30.6038 83.9473 30.8447C83.9766 30.9945 83.9912 31.2646 83.9912 31.6553V32.8271C83.9912 33.6442 84.0091 34.1618 84.0449 34.3799C84.084 34.5947 84.1589 34.8014 84.2695 35H83.3516C83.2604 34.8177 83.2018 34.6045 83.1758 34.3604ZM83.1025 32.3975C82.7835 32.5277 82.305 32.6383 81.667 32.7295C81.3057 32.7816 81.0501 32.8402 80.9004 32.9053C80.7507 32.9704 80.6351 33.0664 80.5537 33.1934C80.4723 33.3171 80.4316 33.4554 80.4316 33.6084C80.4316 33.8428 80.5195 34.0381 80.6953 34.1943C80.8743 34.3506 81.1348 34.4287 81.4766 34.4287C81.8151 34.4287 82.1162 34.3555 82.3799 34.209C82.6436 34.0592 82.8372 33.8558 82.9609 33.5986C83.0553 33.4001 83.1025 33.1071 83.1025 32.7197V32.3975ZM87.2773 34.2139L87.4043 34.9902C87.1569 35.0423 86.9355 35.0684 86.7402 35.0684C86.4212 35.0684 86.1738 35.0179 85.998 34.917C85.8223 34.8161 85.6986 34.6842 85.627 34.5215C85.5553 34.3555 85.5195 34.0088 85.5195 33.4814V30.498H84.875V29.8145H85.5195V28.5303L86.3936 28.0029V29.8145H87.2773V30.498H86.3936V33.5303C86.3936 33.7809 86.4082 33.9421 86.4375 34.0137C86.4701 34.0853 86.5205 34.1423 86.5889 34.1846C86.6605 34.2269 86.7614 34.248 86.8916 34.248C86.9893 34.248 87.1178 34.2367 87.2773 34.2139ZM88.1465 28.8525V27.8418H89.0254V28.8525H88.1465ZM88.1465 35V29.8145H89.0254V35H88.1465ZM90.041 32.4072C90.041 31.4469 90.3079 30.7357 90.8418 30.2734C91.2878 29.8893 91.8314 29.6973 92.4727 29.6973C93.1855 29.6973 93.7682 29.9316 94.2207 30.4004C94.6732 30.8659 94.8994 31.5104 94.8994 32.334C94.8994 33.0013 94.7985 33.527 94.5967 33.9111C94.3981 34.292 94.1068 34.5882 93.7227 34.7998C93.3418 35.0114 92.9251 35.1172 92.4727 35.1172C91.7467 35.1172 91.1592 34.8844 90.71 34.4189C90.264 33.9535 90.041 33.2829 90.041 32.4072ZM90.9443 32.4072C90.9443 33.0713 91.0892 33.5693 91.3789 33.9014C91.6686 34.2301 92.0332 34.3945 92.4727 34.3945C92.9089 34.3945 93.2718 34.2285 93.5615 33.8965C93.8512 33.5645 93.9961 33.0583 93.9961 32.3779C93.9961 31.7367 93.8496 31.2516 93.5566 30.9229C93.2669 30.5908 92.9056 30.4248 92.4727 30.4248C92.0332 30.4248 91.6686 30.5892 91.3789 30.918C91.0892 31.2467 90.9443 31.7432 90.9443 32.4072ZM95.9346 35V29.8145H96.7256V30.5518C97.1064 29.9821 97.6566 29.6973 98.376 29.6973C98.6885 29.6973 98.9749 29.7542 99.2354 29.8682C99.499 29.9788 99.696 30.1253 99.8262 30.3076C99.9564 30.4899 100.048 30.7064 100.1 30.957C100.132 31.1198 100.148 31.4046 100.148 31.8115V35H99.2695V31.8457C99.2695 31.4876 99.2354 31.2207 99.167 31.0449C99.0986 30.8659 98.9766 30.7243 98.8008 30.6201C98.6283 30.5127 98.4248 30.459 98.1904 30.459C97.8161 30.459 97.4922 30.5778 97.2188 30.8154C96.9486 31.0531 96.8135 31.5039 96.8135 32.168V35H95.9346Z" fill="black"/>
<path d="M68.8789 71.4902L69.8262 71.7295C69.6276 72.5075 69.2695 73.1016 68.752 73.5117C68.2376 73.9186 67.6077 74.1221 66.8623 74.1221C66.0908 74.1221 65.4626 73.9658 64.9775 73.6533C64.4958 73.3376 64.1279 72.8818 63.874 72.2861C63.6234 71.6904 63.498 71.0508 63.498 70.3672C63.498 69.6217 63.6396 68.9723 63.9229 68.4189C64.2093 67.8623 64.6146 67.4408 65.1387 67.1543C65.666 66.8646 66.2454 66.7197 66.877 66.7197C67.5931 66.7197 68.1953 66.902 68.6836 67.2666C69.1719 67.6312 69.512 68.1439 69.7041 68.8047L68.7715 69.0244C68.6055 68.5036 68.3646 68.1243 68.0488 67.8867C67.7331 67.6491 67.3359 67.5303 66.8574 67.5303C66.3073 67.5303 65.8467 67.6621 65.4756 67.9258C65.1077 68.1895 64.849 68.5443 64.6992 68.9902C64.5495 69.4329 64.4746 69.8903 64.4746 70.3623C64.4746 70.971 64.5625 71.5033 64.7383 71.959C64.9173 72.4115 65.194 72.75 65.5684 72.9746C65.9427 73.1992 66.348 73.3115 66.7842 73.3115C67.3148 73.3115 67.764 73.1585 68.1318 72.8525C68.4997 72.5465 68.7487 72.0924 68.8789 71.4902ZM70.5586 71.4072C70.5586 70.4469 70.8255 69.7357 71.3594 69.2734C71.8053 68.8893 72.349 68.6973 72.9902 68.6973C73.7031 68.6973 74.2858 68.9316 74.7383 69.4004C75.1908 69.8659 75.417 70.5104 75.417 71.334C75.417 72.0013 75.3161 72.527 75.1143 72.9111C74.9157 73.292 74.6243 73.5882 74.2402 73.7998C73.8594 74.0114 73.4427 74.1172 72.9902 74.1172C72.2643 74.1172 71.6768 73.8844 71.2275 73.4189C70.7816 72.9535 70.5586 72.2829 70.5586 71.4072ZM71.4619 71.4072C71.4619 72.0713 71.6068 72.5693 71.8965 72.9014C72.1862 73.2301 72.5508 73.3945 72.9902 73.3945C73.4264 73.3945 73.7894 73.2285 74.0791 72.8965C74.3688 72.5645 74.5137 72.0583 74.5137 71.3779C74.5137 70.7367 74.3672 70.2516 74.0742 69.9229C73.7845 69.5908 73.4232 69.4248 72.9902 69.4248C72.5508 69.4248 72.1862 69.5892 71.8965 69.918C71.6068 70.2467 71.4619 70.7432 71.4619 71.4072ZM76.4521 74V68.8145H77.2432V69.5518C77.624 68.9821 78.1742 68.6973 78.8936 68.6973C79.2061 68.6973 79.4925 68.7542 79.7529 68.8682C80.0166 68.9788 80.2135 69.1253 80.3438 69.3076C80.474 69.4899 80.5651 69.7064 80.6172 69.957C80.6497 70.1198 80.666 70.4046 80.666 70.8115V74H79.7871V70.8457C79.7871 70.4876 79.7529 70.2207 79.6846 70.0449C79.6162 69.8659 79.4941 69.7243 79.3184 69.6201C79.1458 69.5127 78.9424 69.459 78.708 69.459C78.3337 69.459 78.0098 69.5778 77.7363 69.8154C77.4661 70.0531 77.3311 70.5039 77.3311 71.168V74H76.4521ZM83.9375 73.2139L84.0645 73.9902C83.8171 74.0423 83.5957 74.0684 83.4004 74.0684C83.0814 74.0684 82.834 74.0179 82.6582 73.917C82.4824 73.8161 82.3587 73.6842 82.2871 73.5215C82.2155 73.3555 82.1797 73.0088 82.1797 72.4814V69.498H81.5352V68.8145H82.1797V67.5303L83.0537 67.0029V68.8145H83.9375V69.498H83.0537V72.5303C83.0537 72.7809 83.0684 72.9421 83.0977 73.0137C83.1302 73.0853 83.1807 73.1423 83.249 73.1846C83.3206 73.2269 83.4215 73.248 83.5518 73.248C83.6494 73.248 83.778 73.2367 83.9375 73.2139ZM84.792 74V68.8145H85.583V69.6006C85.7848 69.2327 85.9704 68.9902 86.1396 68.873C86.3122 68.7559 86.501 68.6973 86.7061 68.6973C87.0023 68.6973 87.3034 68.7917 87.6094 68.9805L87.3066 69.7959C87.0918 69.6689 86.877 69.6055 86.6621 69.6055C86.4701 69.6055 86.2975 69.6641 86.1445 69.7812C85.9915 69.8952 85.8825 70.0547 85.8174 70.2598C85.7197 70.5723 85.6709 70.9141 85.6709 71.2852V74H84.792ZM88.1367 67.8525V66.8418H89.0156V67.8525H88.1367ZM88.1367 74V68.8145H89.0156V74H88.1367ZM91.1689 74H90.3535V66.8418H91.2324V69.3955C91.6035 68.93 92.0771 68.6973 92.6533 68.6973C92.9723 68.6973 93.2734 68.7624 93.5566 68.8926C93.8431 69.0195 94.0775 69.2002 94.2598 69.4346C94.4453 69.6657 94.5902 69.9456 94.6943 70.2744C94.7985 70.6032 94.8506 70.9548 94.8506 71.3291C94.8506 72.2178 94.6309 72.9046 94.1914 73.3896C93.752 73.8747 93.2246 74.1172 92.6094 74.1172C91.9974 74.1172 91.5173 73.8617 91.1689 73.3506V74ZM91.1592 71.3682C91.1592 71.9899 91.2438 72.4391 91.4131 72.7158C91.6898 73.1683 92.0641 73.3945 92.5361 73.3945C92.9202 73.3945 93.2523 73.2285 93.5322 72.8965C93.8122 72.5612 93.9521 72.0632 93.9521 71.4023C93.9521 70.7253 93.8171 70.2256 93.5469 69.9033C93.2799 69.5811 92.9561 69.4199 92.5752 69.4199C92.1911 69.4199 91.859 69.5876 91.5791 69.9229C91.2992 70.2549 91.1592 70.7367 91.1592 71.3682ZM99.3232 74V73.2383C98.9196 73.8242 98.3711 74.1172 97.6777 74.1172C97.3717 74.1172 97.0853 74.0586 96.8184 73.9414C96.5547 73.8242 96.3577 73.6777 96.2275 73.502C96.1006 73.3229 96.0111 73.1048 95.959 72.8477C95.9232 72.6751 95.9053 72.4017 95.9053 72.0273V68.8145H96.7842V71.6904C96.7842 72.1494 96.8021 72.4587 96.8379 72.6182C96.8932 72.8493 97.0104 73.0316 97.1895 73.165C97.3685 73.2952 97.5898 73.3604 97.8535 73.3604C98.1172 73.3604 98.3646 73.2936 98.5957 73.1602C98.8268 73.0234 98.9896 72.8395 99.084 72.6084C99.1816 72.374 99.2305 72.0355 99.2305 71.5928V68.8145H100.109V74H99.3232ZM103.41 73.2139L103.537 73.9902C103.29 74.0423 103.068 74.0684 102.873 74.0684C102.554 74.0684 102.307 74.0179 102.131 73.917C101.955 73.8161 101.831 73.6842 101.76 73.5215C101.688 73.3555 101.652 73.0088 101.652 72.4814V69.498H101.008V68.8145H101.652V67.5303L102.526 67.0029V68.8145H103.41V69.498H102.526V72.5303C102.526 72.7809 102.541 72.9421 102.57 73.0137C102.603 73.0853 102.653 73.1423 102.722 73.1846C102.793 73.2269 102.894 73.248 103.024 73.248C103.122 73.248 103.251 73.2367 103.41 73.2139ZM103.947 71.4072C103.947 70.4469 104.214 69.7357 104.748 69.2734C105.194 68.8893 105.738 68.6973 106.379 68.6973C107.092 68.6973 107.674 68.9316 108.127 69.4004C108.579 69.8659 108.806 70.5104 108.806 71.334C108.806 72.0013 108.705 72.527 108.503 72.9111C108.304 73.292 108.013 73.5882 107.629 73.7998C107.248 74.0114 106.831 74.1172 106.379 74.1172C105.653 74.1172 105.065 73.8844 104.616 73.4189C104.17 72.9535 103.947 72.2829 103.947 71.4072ZM104.851 71.4072C104.851 72.0713 104.995 72.5693 105.285 72.9014C105.575 73.2301 105.939 73.3945 106.379 73.3945C106.815 73.3945 107.178 73.2285 107.468 72.8965C107.757 72.5645 107.902 72.0583 107.902 71.3779C107.902 70.7367 107.756 70.2516 107.463 69.9229C107.173 69.5908 106.812 69.4248 106.379 69.4248C105.939 69.4248 105.575 69.5892 105.285 69.918C104.995 70.2467 104.851 70.7432 104.851 71.4072ZM109.831 74V68.8145H110.622V69.6006C110.824 69.2327 111.009 68.9902 111.179 68.873C111.351 68.7559 111.54 68.6973 111.745 68.6973C112.041 68.6973 112.342 68.7917 112.648 68.9805L112.346 69.7959C112.131 69.6689 111.916 69.6055 111.701 69.6055C111.509 69.6055 111.337 69.6641 111.184 69.7812C111.031 69.8952 110.922 70.0547 110.856 70.2598C110.759 70.5723 110.71 70.9141 110.71 71.2852V74H109.831Z" fill="black"/>
<path d="M63.7861 109V101.842H66.96C67.598 101.842 68.083 101.907 68.415 102.037C68.7471 102.164 69.0124 102.39 69.2109 102.716C69.4095 103.041 69.5088 103.401 69.5088 103.795C69.5088 104.303 69.3444 104.731 69.0156 105.079C68.6868 105.427 68.179 105.649 67.4922 105.743C67.7428 105.864 67.9333 105.982 68.0635 106.1C68.3402 106.354 68.6022 106.671 68.8496 107.052L70.0947 109H68.9033L67.9561 107.511C67.6794 107.081 67.4515 106.752 67.2725 106.524C67.0934 106.297 66.9323 106.137 66.7891 106.046C66.6491 105.955 66.5059 105.891 66.3594 105.855C66.252 105.833 66.0762 105.821 65.832 105.821H64.7334V109H63.7861ZM64.7334 105.001H66.7695C67.2025 105.001 67.541 104.957 67.7852 104.869C68.0293 104.778 68.2148 104.635 68.3418 104.439C68.4688 104.241 68.5322 104.026 68.5322 103.795C68.5322 103.456 68.4085 103.178 68.1611 102.96C67.917 102.742 67.5296 102.633 66.999 102.633H64.7334V105.001ZM74.4355 107.33L75.3438 107.442C75.2005 107.973 74.9352 108.385 74.5479 108.678C74.1605 108.971 73.6657 109.117 73.0635 109.117C72.305 109.117 71.7028 108.884 71.2568 108.419C70.8141 107.95 70.5928 107.294 70.5928 106.451C70.5928 105.579 70.8174 104.902 71.2666 104.42C71.7158 103.938 72.2985 103.697 73.0146 103.697C73.708 103.697 74.2744 103.933 74.7139 104.405C75.1533 104.877 75.373 105.541 75.373 106.397C75.373 106.45 75.3714 106.528 75.3682 106.632H71.501C71.5335 107.201 71.6947 107.638 71.9844 107.94C72.2741 108.243 72.6354 108.395 73.0684 108.395C73.3906 108.395 73.6657 108.31 73.8936 108.141C74.1214 107.971 74.3021 107.701 74.4355 107.33ZM71.5498 105.909H74.4453C74.4062 105.473 74.2956 105.146 74.1133 104.928C73.8333 104.589 73.4704 104.42 73.0244 104.42C72.6208 104.42 72.2806 104.555 72.0039 104.825C71.7305 105.095 71.5791 105.457 71.5498 105.909ZM76.1006 107.452L76.9697 107.315C77.0186 107.664 77.1536 107.931 77.375 108.116C77.5996 108.302 77.9121 108.395 78.3125 108.395C78.7161 108.395 79.0156 108.313 79.2109 108.15C79.4062 107.984 79.5039 107.791 79.5039 107.569C79.5039 107.371 79.4176 107.215 79.2451 107.101C79.1247 107.022 78.8252 106.923 78.3467 106.803C77.7021 106.64 77.2546 106.5 77.0039 106.383C76.7565 106.262 76.5677 106.098 76.4375 105.89C76.3105 105.678 76.2471 105.445 76.2471 105.191C76.2471 104.96 76.2992 104.747 76.4033 104.552C76.5107 104.353 76.6556 104.189 76.8379 104.059C76.9746 103.958 77.1602 103.873 77.3945 103.805C77.6322 103.733 77.8861 103.697 78.1562 103.697C78.5632 103.697 78.9196 103.756 79.2256 103.873C79.5348 103.99 79.7627 104.15 79.9092 104.352C80.0557 104.55 80.1566 104.817 80.2119 105.152L79.3525 105.27C79.3135 105.003 79.1995 104.794 79.0107 104.645C78.8252 104.495 78.5615 104.42 78.2197 104.42C77.8161 104.42 77.528 104.487 77.3555 104.62C77.1829 104.754 77.0967 104.91 77.0967 105.089C77.0967 105.203 77.1325 105.305 77.2041 105.396C77.2757 105.491 77.388 105.569 77.541 105.631C77.6289 105.663 77.8877 105.738 78.3174 105.855C78.9391 106.021 79.3721 106.158 79.6162 106.266C79.8636 106.37 80.0573 106.523 80.1973 106.725C80.3372 106.926 80.4072 107.177 80.4072 107.477C80.4072 107.77 80.321 108.046 80.1484 108.307C79.9792 108.564 79.7334 108.764 79.4111 108.907C79.0889 109.047 78.7243 109.117 78.3174 109.117C77.6436 109.117 77.1292 108.977 76.7744 108.697C76.4229 108.417 76.1982 108.002 76.1006 107.452ZM85.002 107.33L85.9102 107.442C85.7669 107.973 85.5016 108.385 85.1143 108.678C84.7269 108.971 84.2321 109.117 83.6299 109.117C82.8714 109.117 82.2692 108.884 81.8232 108.419C81.3805 107.95 81.1592 107.294 81.1592 106.451C81.1592 105.579 81.3838 104.902 81.833 104.42C82.2822 103.938 82.8649 103.697 83.5811 103.697C84.2744 103.697 84.8408 103.933 85.2803 104.405C85.7197 104.877 85.9395 105.541 85.9395 106.397C85.9395 106.45 85.9378 106.528 85.9346 106.632H82.0674C82.0999 107.201 82.2611 107.638 82.5508 107.94C82.8405 108.243 83.2018 108.395 83.6348 108.395C83.957 108.395 84.2321 108.31 84.46 108.141C84.6878 107.971 84.8685 107.701 85.002 107.33ZM82.1162 105.909H85.0117C84.9727 105.473 84.862 105.146 84.6797 104.928C84.3997 104.589 84.0368 104.42 83.5908 104.42C83.1872 104.42 82.847 104.555 82.5703 104.825C82.2969 105.095 82.1455 105.457 82.1162 105.909ZM90.4023 108.36C90.0768 108.637 89.7627 108.832 89.46 108.946C89.1605 109.06 88.8382 109.117 88.4932 109.117C87.9235 109.117 87.4857 108.979 87.1797 108.702C86.8737 108.422 86.7207 108.066 86.7207 107.633C86.7207 107.379 86.7777 107.148 86.8916 106.939C87.0088 106.728 87.1602 106.559 87.3457 106.432C87.5345 106.305 87.7461 106.209 87.9805 106.144C88.153 106.098 88.4134 106.054 88.7617 106.012C89.4714 105.927 89.9938 105.826 90.3291 105.709C90.3324 105.589 90.334 105.512 90.334 105.479C90.334 105.121 90.251 104.869 90.085 104.723C89.8604 104.524 89.5267 104.425 89.084 104.425C88.6706 104.425 88.3646 104.498 88.166 104.645C87.9707 104.788 87.8258 105.043 87.7314 105.411L86.8721 105.294C86.9502 104.926 87.0788 104.63 87.2578 104.405C87.4368 104.177 87.6956 104.003 88.0342 103.883C88.3727 103.759 88.765 103.697 89.2109 103.697C89.6536 103.697 90.0133 103.749 90.29 103.854C90.5667 103.958 90.7702 104.09 90.9004 104.249C91.0306 104.405 91.1217 104.604 91.1738 104.845C91.2031 104.994 91.2178 105.265 91.2178 105.655V106.827C91.2178 107.644 91.2357 108.162 91.2715 108.38C91.3105 108.595 91.3854 108.801 91.4961 109H90.5781C90.487 108.818 90.4284 108.604 90.4023 108.36ZM90.3291 106.397C90.0101 106.528 89.5316 106.638 88.8936 106.729C88.5322 106.782 88.2767 106.84 88.127 106.905C87.9772 106.97 87.8617 107.066 87.7803 107.193C87.6989 107.317 87.6582 107.455 87.6582 107.608C87.6582 107.843 87.7461 108.038 87.9219 108.194C88.1009 108.351 88.3613 108.429 88.7031 108.429C89.0417 108.429 89.3428 108.355 89.6064 108.209C89.8701 108.059 90.0638 107.856 90.1875 107.599C90.2819 107.4 90.3291 107.107 90.3291 106.72V106.397ZM92.5752 109V103.814H93.3662V104.601C93.568 104.233 93.7536 103.99 93.9229 103.873C94.0954 103.756 94.2842 103.697 94.4893 103.697C94.7855 103.697 95.0866 103.792 95.3926 103.98L95.0898 104.796C94.875 104.669 94.6602 104.605 94.4453 104.605C94.2533 104.605 94.0807 104.664 93.9277 104.781C93.7747 104.895 93.6657 105.055 93.6006 105.26C93.5029 105.572 93.4541 105.914 93.4541 106.285V109H92.5752ZM99.2988 107.101L100.163 107.213C100.069 107.809 99.8262 108.276 99.4355 108.614C99.0482 108.95 98.5713 109.117 98.0049 109.117C97.2952 109.117 96.724 108.886 96.291 108.424C95.8613 107.958 95.6465 107.293 95.6465 106.427C95.6465 105.867 95.7393 105.377 95.9248 104.957C96.1104 104.537 96.3919 104.223 96.7695 104.015C97.1504 103.803 97.5638 103.697 98.0098 103.697C98.5729 103.697 99.0335 103.84 99.3916 104.127C99.7497 104.41 99.9792 104.814 100.08 105.338L99.2256 105.47C99.1442 105.121 98.9993 104.859 98.791 104.684C98.5859 104.508 98.3369 104.42 98.0439 104.42C97.6012 104.42 97.2415 104.579 96.9648 104.898C96.6882 105.214 96.5498 105.715 96.5498 106.402C96.5498 107.099 96.6833 107.605 96.9502 107.921C97.2171 108.237 97.5654 108.395 97.9951 108.395C98.3402 108.395 98.6283 108.289 98.8594 108.077C99.0905 107.866 99.237 107.54 99.2988 107.101ZM100.915 109V101.842H101.794V104.41C102.204 103.935 102.722 103.697 103.347 103.697C103.731 103.697 104.064 103.774 104.348 103.927C104.631 104.076 104.833 104.285 104.953 104.552C105.077 104.819 105.139 105.206 105.139 105.714V109H104.26V105.714C104.26 105.274 104.164 104.955 103.972 104.757C103.783 104.555 103.514 104.454 103.166 104.454C102.906 104.454 102.66 104.522 102.429 104.659C102.201 104.793 102.038 104.975 101.94 105.206C101.843 105.437 101.794 105.756 101.794 106.163V109H100.915ZM110.031 107.33L110.939 107.442C110.796 107.973 110.531 108.385 110.144 108.678C109.756 108.971 109.261 109.117 108.659 109.117C107.901 109.117 107.299 108.884 106.853 108.419C106.41 107.95 106.188 107.294 106.188 106.451C106.188 105.579 106.413 104.902 106.862 104.42C107.312 103.938 107.894 103.697 108.61 103.697C109.304 103.697 109.87 103.933 110.31 104.405C110.749 104.877 110.969 105.541 110.969 106.397C110.969 106.45 110.967 106.528 110.964 106.632H107.097C107.129 107.201 107.29 107.638 107.58 107.94C107.87 108.243 108.231 108.395 108.664 108.395C108.986 108.395 109.261 108.31 109.489 108.141C109.717 107.971 109.898 107.701 110.031 107.33ZM107.146 105.909H110.041C110.002 105.473 109.891 105.146 109.709 104.928C109.429 104.589 109.066 104.42 108.62 104.42C108.216 104.42 107.876 104.555 107.6 104.825C107.326 105.095 107.175 105.457 107.146 105.909ZM112.038 109V103.814H112.829V104.601C113.031 104.233 113.216 103.99 113.386 103.873C113.558 103.756 113.747 103.697 113.952 103.697C114.248 103.697 114.549 103.792 114.855 103.98L114.553 104.796C114.338 104.669 114.123 104.605 113.908 104.605C113.716 104.605 113.544 104.664 113.391 104.781C113.238 104.895 113.129 105.055 113.063 105.26C112.966 105.572 112.917 105.914 112.917 106.285V109H112.038Z" fill="black"/>
<path d="M63.7617 153V145.842H64.7334L68.4932 151.462V145.842H69.4014V153H68.4297L64.6699 147.375V153H63.7617ZM70.5586 150.407C70.5586 149.447 70.8255 148.736 71.3594 148.273C71.8053 147.889 72.349 147.697 72.9902 147.697C73.7031 147.697 74.2858 147.932 74.7383 148.4C75.1908 148.866 75.417 149.51 75.417 150.334C75.417 151.001 75.3161 151.527 75.1143 151.911C74.9157 152.292 74.6243 152.588 74.2402 152.8C73.8594 153.011 73.4427 153.117 72.9902 153.117C72.2643 153.117 71.6768 152.884 71.2275 152.419C70.7816 151.953 70.5586 151.283 70.5586 150.407ZM71.4619 150.407C71.4619 151.071 71.6068 151.569 71.8965 151.901C72.1862 152.23 72.5508 152.395 72.9902 152.395C73.4264 152.395 73.7894 152.229 74.0791 151.896C74.3688 151.564 74.5137 151.058 74.5137 150.378C74.5137 149.737 74.3672 149.252 74.0742 148.923C73.7845 148.591 73.4232 148.425 72.9902 148.425C72.5508 148.425 72.1862 148.589 71.8965 148.918C71.6068 149.247 71.4619 149.743 71.4619 150.407ZM78.3711 152.214L78.498 152.99C78.2507 153.042 78.0293 153.068 77.834 153.068C77.515 153.068 77.2676 153.018 77.0918 152.917C76.916 152.816 76.7923 152.684 76.7207 152.521C76.6491 152.355 76.6133 152.009 76.6133 151.481V148.498H75.9688V147.814H76.6133V146.53L77.4873 146.003V147.814H78.3711V148.498H77.4873V151.53C77.4873 151.781 77.502 151.942 77.5312 152.014C77.5638 152.085 77.6143 152.142 77.6826 152.185C77.7542 152.227 77.8551 152.248 77.9854 152.248C78.083 152.248 78.2116 152.237 78.3711 152.214ZM82.7852 151.33L83.6934 151.442C83.5501 151.973 83.2848 152.385 82.8975 152.678C82.5101 152.971 82.0153 153.117 81.4131 153.117C80.6546 153.117 80.0524 152.884 79.6064 152.419C79.1637 151.95 78.9424 151.294 78.9424 150.451C78.9424 149.579 79.167 148.902 79.6162 148.42C80.0654 147.938 80.6481 147.697 81.3643 147.697C82.0576 147.697 82.624 147.933 83.0635 148.405C83.5029 148.877 83.7227 149.541 83.7227 150.397C83.7227 150.45 83.721 150.528 83.7178 150.632H79.8506C79.8831 151.201 80.0443 151.638 80.334 151.94C80.6237 152.243 80.985 152.395 81.418 152.395C81.7402 152.395 82.0153 152.31 82.2432 152.141C82.471 151.971 82.6517 151.701 82.7852 151.33ZM79.8994 149.909H82.7949C82.7559 149.473 82.6452 149.146 82.4629 148.928C82.1829 148.589 81.82 148.42 81.374 148.42C80.9704 148.42 80.6302 148.555 80.3535 148.825C80.0801 149.095 79.9287 149.457 79.8994 149.909ZM84.4502 151.452L85.3193 151.315C85.3682 151.664 85.5033 151.931 85.7246 152.116C85.9492 152.302 86.2617 152.395 86.6621 152.395C87.0658 152.395 87.3652 152.313 87.5605 152.15C87.7559 151.984 87.8535 151.791 87.8535 151.569C87.8535 151.371 87.7673 151.215 87.5947 151.101C87.4743 151.022 87.1748 150.923 86.6963 150.803C86.0518 150.64 85.6042 150.5 85.3535 150.383C85.1061 150.262 84.9173 150.098 84.7871 149.89C84.6602 149.678 84.5967 149.445 84.5967 149.191C84.5967 148.96 84.6488 148.747 84.7529 148.552C84.8604 148.353 85.0052 148.189 85.1875 148.059C85.3242 147.958 85.5098 147.873 85.7441 147.805C85.9818 147.733 86.2357 147.697 86.5059 147.697C86.9128 147.697 87.2692 147.756 87.5752 147.873C87.8844 147.99 88.1123 148.15 88.2588 148.352C88.4053 148.55 88.5062 148.817 88.5615 149.152L87.7021 149.27C87.6631 149.003 87.5492 148.794 87.3604 148.645C87.1748 148.495 86.9111 148.42 86.5693 148.42C86.1657 148.42 85.8776 148.487 85.7051 148.62C85.5326 148.754 85.4463 148.91 85.4463 149.089C85.4463 149.203 85.4821 149.305 85.5537 149.396C85.6253 149.491 85.7376 149.569 85.8906 149.631C85.9785 149.663 86.2373 149.738 86.667 149.855C87.2887 150.021 87.7217 150.158 87.9658 150.266C88.2132 150.37 88.4069 150.523 88.5469 150.725C88.6868 150.926 88.7568 151.177 88.7568 151.477C88.7568 151.77 88.6706 152.046 88.498 152.307C88.3288 152.564 88.083 152.764 87.7607 152.907C87.4385 153.047 87.0739 153.117 86.667 153.117C85.9932 153.117 85.4788 152.977 85.124 152.697C84.7725 152.417 84.5479 152.002 84.4502 151.452Z" fill="black"/>
<path d="M117.633 811V805.273H121.496V805.949H118.391V807.723H121.078V808.398H118.391V811H117.633ZM122.254 808.211C122.254 807.26 122.509 806.517 123.02 805.98C123.53 805.441 124.189 805.172 124.996 805.172C125.525 805.172 126.001 805.298 126.426 805.551C126.85 805.803 127.173 806.156 127.395 806.609C127.618 807.06 127.73 807.572 127.73 808.145C127.73 808.725 127.613 809.245 127.379 809.703C127.145 810.161 126.812 810.509 126.383 810.746C125.953 810.98 125.49 811.098 124.992 811.098C124.453 811.098 123.971 810.967 123.547 810.707C123.122 810.447 122.801 810.091 122.582 809.641C122.363 809.19 122.254 808.714 122.254 808.211ZM123.035 808.223C123.035 808.913 123.22 809.457 123.59 809.855C123.962 810.251 124.428 810.449 124.988 810.449C125.559 810.449 126.027 810.249 126.395 809.848C126.764 809.447 126.949 808.878 126.949 808.141C126.949 807.674 126.87 807.268 126.711 806.922C126.555 806.573 126.324 806.303 126.02 806.113C125.717 805.921 125.378 805.824 125 805.824C124.464 805.824 124.001 806.009 123.613 806.379C123.228 806.746 123.035 807.361 123.035 808.223ZM128.723 811V805.273H131.262C131.772 805.273 132.16 805.326 132.426 805.43C132.691 805.531 132.904 805.712 133.062 805.973C133.221 806.233 133.301 806.521 133.301 806.836C133.301 807.242 133.169 807.585 132.906 807.863C132.643 808.142 132.237 808.319 131.688 808.395C131.888 808.491 132.04 808.586 132.145 808.68C132.366 808.883 132.576 809.137 132.773 809.441L133.77 811H132.816L132.059 809.809C131.837 809.465 131.655 809.202 131.512 809.02C131.368 808.837 131.24 808.71 131.125 808.637C131.013 808.564 130.898 808.513 130.781 808.484C130.695 808.466 130.555 808.457 130.359 808.457H129.48V811H128.723ZM129.48 807.801H131.109C131.456 807.801 131.727 807.766 131.922 807.695C132.117 807.622 132.266 807.508 132.367 807.352C132.469 807.193 132.52 807.021 132.52 806.836C132.52 806.565 132.421 806.342 132.223 806.168C132.027 805.993 131.717 805.906 131.293 805.906H129.48V807.801ZM136.73 811V805.273H139.27C139.78 805.273 140.168 805.326 140.434 805.43C140.699 805.531 140.911 805.712 141.07 805.973C141.229 806.233 141.309 806.521 141.309 806.836C141.309 807.242 141.177 807.585 140.914 807.863C140.651 808.142 140.245 808.319 139.695 808.395C139.896 808.491 140.048 808.586 140.152 808.68C140.374 808.883 140.583 809.137 140.781 809.441L141.777 811H140.824L140.066 809.809C139.845 809.465 139.663 809.202 139.52 809.02C139.376 808.837 139.247 808.71 139.133 808.637C139.021 808.564 138.906 808.513 138.789 808.484C138.703 808.466 138.562 808.457 138.367 808.457H137.488V811H136.73ZM137.488 807.801H139.117C139.464 807.801 139.734 807.766 139.93 807.695C140.125 807.622 140.273 807.508 140.375 807.352C140.477 807.193 140.527 807.021 140.527 806.836C140.527 806.565 140.428 806.342 140.23 806.168C140.035 805.993 139.725 805.906 139.301 805.906H137.488V807.801ZM142.516 811V805.273H146.656V805.949H143.273V807.703H146.441V808.375H143.273V810.324H146.789V811H142.516ZM147.578 809.16L148.293 809.098C148.327 809.384 148.405 809.62 148.527 809.805C148.652 809.987 148.845 810.135 149.105 810.25C149.366 810.362 149.659 810.418 149.984 810.418C150.273 810.418 150.529 810.375 150.75 810.289C150.971 810.203 151.135 810.086 151.242 809.938C151.352 809.786 151.406 809.622 151.406 809.445C151.406 809.266 151.354 809.109 151.25 808.977C151.146 808.841 150.974 808.728 150.734 808.637C150.581 808.577 150.241 808.484 149.715 808.359C149.189 808.232 148.82 808.112 148.609 808C148.336 807.857 148.132 807.68 147.996 807.469C147.863 807.255 147.797 807.017 147.797 806.754C147.797 806.465 147.879 806.195 148.043 805.945C148.207 805.693 148.447 805.501 148.762 805.371C149.077 805.241 149.427 805.176 149.812 805.176C150.237 805.176 150.611 805.245 150.934 805.383C151.259 805.518 151.509 805.719 151.684 805.984C151.858 806.25 151.952 806.551 151.965 806.887L151.238 806.941C151.199 806.579 151.066 806.306 150.84 806.121C150.616 805.936 150.284 805.844 149.844 805.844C149.385 805.844 149.051 805.928 148.84 806.098C148.632 806.264 148.527 806.466 148.527 806.703C148.527 806.909 148.602 807.078 148.75 807.211C148.896 807.344 149.276 807.48 149.891 807.621C150.508 807.759 150.931 807.88 151.16 807.984C151.493 808.138 151.74 808.333 151.898 808.57C152.057 808.805 152.137 809.076 152.137 809.383C152.137 809.688 152.049 809.975 151.875 810.246C151.701 810.514 151.449 810.724 151.121 810.875C150.796 811.023 150.428 811.098 150.02 811.098C149.501 811.098 149.066 811.022 148.715 810.871C148.366 810.72 148.091 810.493 147.891 810.191C147.693 809.887 147.589 809.543 147.578 809.16ZM153.188 811V805.273H157.328V805.949H153.945V807.703H157.113V808.375H153.945V810.324H157.461V811H153.188ZM157.879 811L160.078 805.273H160.895L163.238 811H162.375L161.707 809.266H159.312L158.684 811H157.879ZM159.531 808.648H161.473L160.875 807.062C160.693 806.581 160.557 806.185 160.469 805.875C160.396 806.242 160.293 806.607 160.16 806.969L159.531 808.648ZM163.855 811V805.273H166.395C166.905 805.273 167.293 805.326 167.559 805.43C167.824 805.531 168.036 805.712 168.195 805.973C168.354 806.233 168.434 806.521 168.434 806.836C168.434 807.242 168.302 807.585 168.039 807.863C167.776 808.142 167.37 808.319 166.82 808.395C167.021 808.491 167.173 808.586 167.277 808.68C167.499 808.883 167.708 809.137 167.906 809.441L168.902 811H167.949L167.191 809.809C166.97 809.465 166.788 809.202 166.645 809.02C166.501 808.837 166.372 808.71 166.258 808.637C166.146 808.564 166.031 808.513 165.914 808.484C165.828 808.466 165.688 808.457 165.492 808.457H164.613V811H163.855ZM164.613 807.801H166.242C166.589 807.801 166.859 807.766 167.055 807.695C167.25 807.622 167.398 807.508 167.5 807.352C167.602 807.193 167.652 807.021 167.652 806.836C167.652 806.565 167.553 806.342 167.355 806.168C167.16 805.993 166.85 805.906 166.426 805.906H164.613V807.801ZM173.711 808.992L174.469 809.184C174.31 809.806 174.023 810.281 173.609 810.609C173.198 810.935 172.694 811.098 172.098 811.098C171.48 811.098 170.978 810.973 170.59 810.723C170.204 810.47 169.91 810.105 169.707 809.629C169.507 809.152 169.406 808.641 169.406 808.094C169.406 807.497 169.52 806.978 169.746 806.535C169.975 806.09 170.299 805.753 170.719 805.523C171.141 805.292 171.604 805.176 172.109 805.176C172.682 805.176 173.164 805.322 173.555 805.613C173.945 805.905 174.217 806.315 174.371 806.844L173.625 807.02C173.492 806.603 173.299 806.299 173.047 806.109C172.794 805.919 172.477 805.824 172.094 805.824C171.654 805.824 171.285 805.93 170.988 806.141C170.694 806.352 170.487 806.635 170.367 806.992C170.247 807.346 170.188 807.712 170.188 808.09C170.188 808.577 170.258 809.003 170.398 809.367C170.542 809.729 170.763 810 171.062 810.18C171.362 810.359 171.686 810.449 172.035 810.449C172.46 810.449 172.819 810.327 173.113 810.082C173.408 809.837 173.607 809.474 173.711 808.992ZM175.43 811V805.273H176.188V807.625H179.164V805.273H179.922V811H179.164V808.301H176.188V811H175.43ZM183.184 808.211C183.184 807.26 183.439 806.517 183.949 805.98C184.46 805.441 185.118 805.172 185.926 805.172C186.454 805.172 186.931 805.298 187.355 805.551C187.78 805.803 188.103 806.156 188.324 806.609C188.548 807.06 188.66 807.572 188.66 808.145C188.66 808.725 188.543 809.245 188.309 809.703C188.074 810.161 187.742 810.509 187.312 810.746C186.883 810.98 186.419 811.098 185.922 811.098C185.383 811.098 184.901 810.967 184.477 810.707C184.052 810.447 183.73 810.091 183.512 809.641C183.293 809.19 183.184 808.714 183.184 808.211ZM183.965 808.223C183.965 808.913 184.15 809.457 184.52 809.855C184.892 810.251 185.358 810.449 185.918 810.449C186.488 810.449 186.957 810.249 187.324 809.848C187.694 809.447 187.879 808.878 187.879 808.141C187.879 807.674 187.799 807.268 187.641 806.922C187.484 806.573 187.254 806.303 186.949 806.113C186.647 805.921 186.307 805.824 185.93 805.824C185.393 805.824 184.931 806.009 184.543 806.379C184.158 806.746 183.965 807.361 183.965 808.223ZM189.633 811V805.273H190.41L193.418 809.77V805.273H194.145V811H193.367L190.359 806.5V811H189.633ZM195.391 811V805.273H196.148V810.324H198.969V811H195.391ZM200.895 811V808.574L198.688 805.273H199.609L200.738 807C200.947 807.323 201.141 807.646 201.32 807.969C201.492 807.669 201.701 807.332 201.945 806.957L203.055 805.273H203.938L201.652 808.574V811H200.895Z" fill="black"/>
<path d="M63.6562 811V805.273H65.6289C66.0742 805.273 66.4141 805.301 66.6484 805.355C66.9766 805.431 67.2565 805.568 67.4883 805.766C67.7904 806.021 68.0156 806.348 68.1641 806.746C68.3151 807.142 68.3906 807.595 68.3906 808.105C68.3906 808.54 68.3398 808.926 68.2383 809.262C68.1367 809.598 68.0065 809.876 67.8477 810.098C67.6888 810.316 67.5143 810.49 67.3242 810.617C67.1367 810.742 66.9089 810.837 66.6406 810.902C66.375 810.967 66.069 811 65.7227 811H63.6562ZM64.4141 810.324H65.6367C66.0143 810.324 66.3099 810.289 66.5234 810.219C66.7396 810.148 66.9115 810.049 67.0391 809.922C67.2188 809.742 67.3581 809.501 67.457 809.199C67.5586 808.895 67.6094 808.526 67.6094 808.094C67.6094 807.495 67.5104 807.035 67.3125 806.715C67.1172 806.392 66.8789 806.176 66.5977 806.066C66.3945 805.988 66.0677 805.949 65.6172 805.949H64.4141V810.324ZM69.3516 806.082V805.273H70.0547V806.082H69.3516ZM69.3516 811V806.852H70.0547V811H69.3516ZM71 811.344L71.6836 811.445C71.7122 811.656 71.7917 811.81 71.9219 811.906C72.0964 812.036 72.3346 812.102 72.6367 812.102C72.9622 812.102 73.2135 812.036 73.3906 811.906C73.5677 811.776 73.6875 811.594 73.75 811.359C73.7865 811.216 73.8034 810.915 73.8008 810.457C73.4935 810.819 73.1107 811 72.6523 811C72.082 811 71.6406 810.794 71.3281 810.383C71.0156 809.971 70.8594 809.478 70.8594 808.902C70.8594 808.507 70.931 808.142 71.0742 807.809C71.2174 807.473 71.4245 807.214 71.6953 807.031C71.9688 806.849 72.2891 806.758 72.6562 806.758C73.1458 806.758 73.5495 806.956 73.8672 807.352V806.852H74.5156V810.438C74.5156 811.083 74.4492 811.54 74.3164 811.809C74.1862 812.079 73.9779 812.293 73.6914 812.449C73.4076 812.605 73.0573 812.684 72.6406 812.684C72.1458 812.684 71.7461 812.572 71.4414 812.348C71.1367 812.126 70.9896 811.792 71 811.344ZM71.582 808.852C71.582 809.396 71.6901 809.793 71.9062 810.043C72.1224 810.293 72.3932 810.418 72.7188 810.418C73.0417 810.418 73.3125 810.294 73.5312 810.047C73.75 809.797 73.8594 809.406 73.8594 808.875C73.8594 808.367 73.7461 807.984 73.5195 807.727C73.2956 807.469 73.0247 807.34 72.707 807.34C72.3945 807.34 72.1289 807.467 71.9102 807.723C71.6914 807.975 71.582 808.352 71.582 808.852ZM75.5859 806.082V805.273H76.2891V806.082H75.5859ZM75.5859 811V806.852H76.2891V811H75.5859ZM78.8984 810.371L79 810.992C78.8021 811.034 78.625 811.055 78.4688 811.055C78.2135 811.055 78.0156 811.014 77.875 810.934C77.7344 810.853 77.6354 810.747 77.5781 810.617C77.5208 810.484 77.4922 810.207 77.4922 809.785V807.398H76.9766V806.852H77.4922V805.824L78.1914 805.402V806.852H78.8984V807.398H78.1914V809.824C78.1914 810.025 78.2031 810.154 78.2266 810.211C78.2526 810.268 78.293 810.314 78.3477 810.348C78.4049 810.382 78.4857 810.398 78.5898 810.398C78.668 810.398 78.7708 810.389 78.8984 810.371ZM82.2969 810.488C82.0365 810.71 81.7852 810.866 81.543 810.957C81.3034 811.048 81.0456 811.094 80.7695 811.094C80.3138 811.094 79.9635 810.983 79.7188 810.762C79.474 810.538 79.3516 810.253 79.3516 809.906C79.3516 809.703 79.3971 809.518 79.4883 809.352C79.582 809.182 79.7031 809.047 79.8516 808.945C80.0026 808.844 80.1719 808.767 80.3594 808.715C80.4974 808.678 80.7057 808.643 80.9844 808.609C81.5521 808.542 81.9701 808.461 82.2383 808.367C82.2409 808.271 82.2422 808.21 82.2422 808.184C82.2422 807.897 82.1758 807.695 82.043 807.578C81.8633 807.419 81.5964 807.34 81.2422 807.34C80.9115 807.34 80.6667 807.398 80.5078 807.516C80.3516 807.63 80.2357 807.835 80.1602 808.129L79.4727 808.035C79.5352 807.741 79.638 807.504 79.7812 807.324C79.9245 807.142 80.1315 807.003 80.4023 806.906C80.6732 806.807 80.987 806.758 81.3438 806.758C81.6979 806.758 81.9857 806.799 82.207 806.883C82.4284 806.966 82.5911 807.072 82.6953 807.199C82.7995 807.324 82.8724 807.483 82.9141 807.676C82.9375 807.796 82.9492 808.012 82.9492 808.324V809.262C82.9492 809.915 82.9635 810.329 82.9922 810.504C83.0234 810.676 83.0833 810.841 83.1719 811H82.4375C82.3646 810.854 82.3177 810.684 82.2969 810.488ZM82.2383 808.918C81.9831 809.022 81.6003 809.111 81.0898 809.184C80.8008 809.225 80.5964 809.272 80.4766 809.324C80.3568 809.376 80.2643 809.453 80.1992 809.555C80.1341 809.654 80.1016 809.764 80.1016 809.887C80.1016 810.074 80.1719 810.23 80.3125 810.355C80.4557 810.48 80.6641 810.543 80.9375 810.543C81.2083 810.543 81.4492 810.484 81.6602 810.367C81.8711 810.247 82.026 810.085 82.125 809.879C82.2005 809.72 82.2383 809.486 82.2383 809.176V808.918ZM84.0273 811V805.273H84.7305V811H84.0273ZM88.1094 811V805.273H90.2578C90.6953 805.273 91.0456 805.332 91.3086 805.449C91.5742 805.564 91.7812 805.742 91.9297 805.984C92.0807 806.224 92.1562 806.475 92.1562 806.738C92.1562 806.983 92.0898 807.214 91.957 807.43C91.8242 807.646 91.6237 807.82 91.3555 807.953C91.7018 808.055 91.9674 808.228 92.1523 808.473C92.3398 808.717 92.4336 809.007 92.4336 809.34C92.4336 809.608 92.3763 809.858 92.2617 810.09C92.1497 810.319 92.0104 810.496 91.8438 810.621C91.6771 810.746 91.4674 810.841 91.2148 810.906C90.9648 810.969 90.6576 811 90.293 811H88.1094ZM88.8672 807.68H90.1055C90.4414 807.68 90.6823 807.658 90.8281 807.613C91.0208 807.556 91.1654 807.461 91.2617 807.328C91.3607 807.195 91.4102 807.029 91.4102 806.828C91.4102 806.638 91.3646 806.471 91.2734 806.328C91.1823 806.182 91.0521 806.083 90.8828 806.031C90.7135 805.977 90.4232 805.949 90.0117 805.949H88.8672V807.68ZM88.8672 810.324H90.293C90.5378 810.324 90.7096 810.315 90.8086 810.297C90.9831 810.266 91.1289 810.214 91.2461 810.141C91.3633 810.068 91.4596 809.962 91.5352 809.824C91.6107 809.684 91.6484 809.522 91.6484 809.34C91.6484 809.126 91.5938 808.941 91.4844 808.785C91.375 808.626 91.2227 808.516 91.0273 808.453C90.8346 808.388 90.556 808.355 90.1914 808.355H88.8672V810.324ZM96.2266 809.664L96.9531 809.754C96.8385 810.178 96.6263 810.508 96.3164 810.742C96.0065 810.977 95.6107 811.094 95.1289 811.094C94.5221 811.094 94.0404 810.908 93.6836 810.535C93.3294 810.16 93.1523 809.635 93.1523 808.961C93.1523 808.263 93.332 807.721 93.6914 807.336C94.0508 806.951 94.5169 806.758 95.0898 806.758C95.6445 806.758 96.0977 806.947 96.4492 807.324C96.8008 807.702 96.9766 808.233 96.9766 808.918C96.9766 808.96 96.9753 809.022 96.9727 809.105H93.8789C93.9049 809.561 94.0339 809.91 94.2656 810.152C94.4974 810.395 94.7865 810.516 95.1328 810.516C95.3906 810.516 95.6107 810.448 95.793 810.312C95.9753 810.177 96.1198 809.961 96.2266 809.664ZM93.918 808.527H96.2344C96.2031 808.178 96.1146 807.917 95.9688 807.742C95.7448 807.471 95.4544 807.336 95.0977 807.336C94.7747 807.336 94.5026 807.444 94.2812 807.66C94.0625 807.876 93.9414 808.165 93.918 808.527ZM97.8398 811V806.852H98.4727V807.441C98.7773 806.986 99.2174 806.758 99.793 806.758C100.043 806.758 100.272 806.803 100.48 806.895C100.691 806.983 100.849 807.1 100.953 807.246C101.057 807.392 101.13 807.565 101.172 807.766C101.198 807.896 101.211 808.124 101.211 808.449V811H100.508V808.477C100.508 808.19 100.48 807.977 100.426 807.836C100.371 807.693 100.273 807.579 100.133 807.496C99.9948 807.41 99.832 807.367 99.6445 807.367C99.3451 807.367 99.0859 807.462 98.8672 807.652C98.651 807.842 98.543 808.203 98.543 808.734V811H97.8398ZM102.297 806.082V805.273H103V806.082H102.297ZM102.297 811V806.852H103V811H102.297ZM104.074 811V806.852H104.707V807.441C105.012 806.986 105.452 806.758 106.027 806.758C106.277 806.758 106.507 806.803 106.715 806.895C106.926 806.983 107.083 807.1 107.188 807.246C107.292 807.392 107.365 807.565 107.406 807.766C107.432 807.896 107.445 808.124 107.445 808.449V811H106.742V808.477C106.742 808.19 106.715 807.977 106.66 807.836C106.605 807.693 106.508 807.579 106.367 807.496C106.229 807.41 106.066 807.367 105.879 807.367C105.579 807.367 105.32 807.462 105.102 807.652C104.885 807.842 104.777 808.203 104.777 808.734V811H104.074Z" fill="black"/>
<path d="M63.4492 684.7L64.3428 684.622C64.3851 684.98 64.4827 685.275 64.6357 685.506C64.792 685.734 65.0329 685.919 65.3584 686.062C65.6839 686.202 66.0501 686.272 66.457 686.272C66.8184 686.272 67.1374 686.219 67.4141 686.111C67.6908 686.004 67.8958 685.857 68.0293 685.672C68.166 685.483 68.2344 685.278 68.2344 685.057C68.2344 684.832 68.1693 684.637 68.0391 684.471C67.9089 684.301 67.694 684.16 67.3945 684.046C67.2025 683.971 66.7777 683.855 66.1201 683.699C65.4626 683.54 65.002 683.39 64.7383 683.25C64.3965 683.071 64.141 682.85 63.9717 682.586C63.8057 682.319 63.7227 682.021 63.7227 681.692C63.7227 681.331 63.8252 680.994 64.0303 680.682C64.2354 680.366 64.5348 680.127 64.9287 679.964C65.3226 679.801 65.7604 679.72 66.2422 679.72C66.7728 679.72 67.2399 679.806 67.6436 679.979C68.0505 680.148 68.363 680.398 68.5811 680.73C68.7992 681.062 68.9163 681.438 68.9326 681.858L68.0244 681.927C67.9756 681.474 67.8096 681.132 67.5264 680.901C67.2464 680.67 66.8314 680.555 66.2812 680.555C65.7083 680.555 65.29 680.66 65.0264 680.872C64.766 681.08 64.6357 681.333 64.6357 681.629C64.6357 681.886 64.7285 682.098 64.9141 682.264C65.0964 682.43 65.5716 682.601 66.3398 682.776C67.1113 682.949 67.6403 683.1 67.9268 683.23C68.3434 683.423 68.651 683.667 68.8496 683.963C69.0482 684.256 69.1475 684.594 69.1475 684.979C69.1475 685.359 69.0384 685.719 68.8203 686.058C68.6022 686.393 68.2881 686.655 67.8779 686.844C67.471 687.029 67.012 687.122 66.501 687.122C65.8532 687.122 65.3096 687.028 64.8701 686.839C64.4339 686.65 64.0905 686.367 63.8398 685.989C63.5924 685.608 63.4622 685.179 63.4492 684.7ZM73.7275 687V686.238C73.3239 686.824 72.7754 687.117 72.082 687.117C71.776 687.117 71.4896 687.059 71.2227 686.941C70.959 686.824 70.762 686.678 70.6318 686.502C70.5049 686.323 70.4154 686.105 70.3633 685.848C70.3275 685.675 70.3096 685.402 70.3096 685.027V681.814H71.1885V684.69C71.1885 685.149 71.2064 685.459 71.2422 685.618C71.2975 685.849 71.4147 686.032 71.5938 686.165C71.7728 686.295 71.9941 686.36 72.2578 686.36C72.5215 686.36 72.7689 686.294 73 686.16C73.2311 686.023 73.3939 685.84 73.4883 685.608C73.5859 685.374 73.6348 685.035 73.6348 684.593V681.814H74.5137V687H73.7275ZM76.7061 687H75.8906V679.842H76.7695V682.396C77.1406 681.93 77.6143 681.697 78.1904 681.697C78.5094 681.697 78.8105 681.762 79.0938 681.893C79.3802 682.02 79.6146 682.2 79.7969 682.435C79.9824 682.666 80.1273 682.946 80.2314 683.274C80.3356 683.603 80.3877 683.955 80.3877 684.329C80.3877 685.218 80.168 685.905 79.7285 686.39C79.2891 686.875 78.7617 687.117 78.1465 687.117C77.5345 687.117 77.0544 686.862 76.7061 686.351V687ZM76.6963 684.368C76.6963 684.99 76.7809 685.439 76.9502 685.716C77.2269 686.168 77.6012 686.395 78.0732 686.395C78.4574 686.395 78.7894 686.229 79.0693 685.896C79.3493 685.561 79.4893 685.063 79.4893 684.402C79.4893 683.725 79.3542 683.226 79.084 682.903C78.8171 682.581 78.4932 682.42 78.1123 682.42C77.7282 682.42 77.3962 682.588 77.1162 682.923C76.8363 683.255 76.6963 683.737 76.6963 684.368ZM81.4619 687V681.814H82.248V682.542C82.4108 682.288 82.6273 682.085 82.8975 681.932C83.1676 681.775 83.4753 681.697 83.8203 681.697C84.2044 681.697 84.5186 681.777 84.7627 681.937C85.0101 682.096 85.1842 682.319 85.2852 682.605C85.6953 682 86.2292 681.697 86.8867 681.697C87.401 681.697 87.7965 681.84 88.0732 682.127C88.3499 682.41 88.4883 682.848 88.4883 683.44V687H87.6143V683.733C87.6143 683.382 87.585 683.13 87.5264 682.977C87.471 682.82 87.3685 682.695 87.2188 682.601C87.069 682.506 86.8932 682.459 86.6914 682.459C86.3268 682.459 86.0241 682.581 85.7832 682.825C85.5423 683.066 85.4219 683.453 85.4219 683.987V687H84.543V683.631C84.543 683.24 84.4714 682.947 84.3281 682.752C84.1849 682.557 83.9505 682.459 83.625 682.459C83.3776 682.459 83.1481 682.524 82.9365 682.654C82.7282 682.785 82.5768 682.975 82.4824 683.226C82.388 683.476 82.3408 683.838 82.3408 684.31V687H81.4619ZM89.7969 680.853V679.842H90.6758V680.853H89.7969ZM89.7969 687V681.814H90.6758V687H89.7969ZM91.667 685.452L92.5361 685.315C92.585 685.664 92.7201 685.931 92.9414 686.116C93.166 686.302 93.4785 686.395 93.8789 686.395C94.2826 686.395 94.582 686.313 94.7773 686.15C94.9727 685.984 95.0703 685.791 95.0703 685.569C95.0703 685.371 94.984 685.215 94.8115 685.101C94.6911 685.022 94.3916 684.923 93.9131 684.803C93.2686 684.64 92.821 684.5 92.5703 684.383C92.3229 684.262 92.1341 684.098 92.0039 683.89C91.877 683.678 91.8135 683.445 91.8135 683.191C91.8135 682.96 91.8656 682.747 91.9697 682.552C92.0771 682.353 92.222 682.189 92.4043 682.059C92.541 681.958 92.7266 681.873 92.9609 681.805C93.1986 681.733 93.4525 681.697 93.7227 681.697C94.1296 681.697 94.486 681.756 94.792 681.873C95.1012 681.99 95.3291 682.15 95.4756 682.352C95.6221 682.55 95.723 682.817 95.7783 683.152L94.9189 683.27C94.8799 683.003 94.766 682.794 94.5771 682.645C94.3916 682.495 94.1279 682.42 93.7861 682.42C93.3825 682.42 93.0944 682.487 92.9219 682.62C92.7493 682.754 92.6631 682.91 92.6631 683.089C92.6631 683.203 92.6989 683.305 92.7705 683.396C92.8421 683.491 92.9544 683.569 93.1074 683.631C93.1953 683.663 93.4541 683.738 93.8838 683.855C94.5055 684.021 94.9385 684.158 95.1826 684.266C95.43 684.37 95.6237 684.523 95.7637 684.725C95.9036 684.926 95.9736 685.177 95.9736 685.477C95.9736 685.77 95.8874 686.046 95.7148 686.307C95.5456 686.564 95.2998 686.764 94.9775 686.907C94.6553 687.047 94.2907 687.117 93.8838 687.117C93.21 687.117 92.6956 686.977 92.3408 686.697C91.9893 686.417 91.7646 686.002 91.667 685.452ZM96.667 685.452L97.5361 685.315C97.585 685.664 97.7201 685.931 97.9414 686.116C98.166 686.302 98.4785 686.395 98.8789 686.395C99.2826 686.395 99.582 686.313 99.7773 686.15C99.9727 685.984 100.07 685.791 100.07 685.569C100.07 685.371 99.984 685.215 99.8115 685.101C99.6911 685.022 99.3916 684.923 98.9131 684.803C98.2686 684.64 97.821 684.5 97.5703 684.383C97.3229 684.262 97.1341 684.098 97.0039 683.89C96.877 683.678 96.8135 683.445 96.8135 683.191C96.8135 682.96 96.8656 682.747 96.9697 682.552C97.0771 682.353 97.222 682.189 97.4043 682.059C97.541 681.958 97.7266 681.873 97.9609 681.805C98.1986 681.733 98.4525 681.697 98.7227 681.697C99.1296 681.697 99.486 681.756 99.792 681.873C100.101 681.99 100.329 682.15 100.476 682.352C100.622 682.55 100.723 682.817 100.778 683.152L99.9189 683.27C99.8799 683.003 99.766 682.794 99.5771 682.645C99.3916 682.495 99.1279 682.42 98.7861 682.42C98.3825 682.42 98.0944 682.487 97.9219 682.62C97.7493 682.754 97.6631 682.91 97.6631 683.089C97.6631 683.203 97.6989 683.305 97.7705 683.396C97.8421 683.491 97.9544 683.569 98.1074 683.631C98.1953 683.663 98.4541 683.738 98.8838 683.855C99.5055 684.021 99.9385 684.158 100.183 684.266C100.43 684.37 100.624 684.523 100.764 684.725C100.904 684.926 100.974 685.177 100.974 685.477C100.974 685.77 100.887 686.046 100.715 686.307C100.546 686.564 100.3 686.764 99.9775 686.907C99.6553 687.047 99.2907 687.117 98.8838 687.117C98.21 687.117 97.6956 686.977 97.3408 686.697C96.9893 686.417 96.7646 686.002 96.667 685.452ZM102.023 680.853V679.842H102.902V680.853H102.023ZM102.023 687V681.814H102.902V687H102.023ZM103.918 684.407C103.918 683.447 104.185 682.736 104.719 682.273C105.165 681.889 105.708 681.697 106.35 681.697C107.062 681.697 107.645 681.932 108.098 682.4C108.55 682.866 108.776 683.51 108.776 684.334C108.776 685.001 108.675 685.527 108.474 685.911C108.275 686.292 107.984 686.588 107.6 686.8C107.219 687.011 106.802 687.117 106.35 687.117C105.624 687.117 105.036 686.884 104.587 686.419C104.141 685.953 103.918 685.283 103.918 684.407ZM104.821 684.407C104.821 685.071 104.966 685.569 105.256 685.901C105.546 686.23 105.91 686.395 106.35 686.395C106.786 686.395 107.149 686.229 107.438 685.896C107.728 685.564 107.873 685.058 107.873 684.378C107.873 683.737 107.727 683.252 107.434 682.923C107.144 682.591 106.783 682.425 106.35 682.425C105.91 682.425 105.546 682.589 105.256 682.918C104.966 683.247 104.821 683.743 104.821 684.407ZM109.812 687V681.814H110.603V682.552C110.983 681.982 111.534 681.697 112.253 681.697C112.565 681.697 112.852 681.754 113.112 681.868C113.376 681.979 113.573 682.125 113.703 682.308C113.833 682.49 113.924 682.706 113.977 682.957C114.009 683.12 114.025 683.405 114.025 683.812V687H113.146V683.846C113.146 683.488 113.112 683.221 113.044 683.045C112.976 682.866 112.854 682.724 112.678 682.62C112.505 682.513 112.302 682.459 112.067 682.459C111.693 682.459 111.369 682.578 111.096 682.815C110.826 683.053 110.69 683.504 110.69 684.168V687H109.812ZM118.371 687V682.498H117.595V681.814H118.371V681.263C118.371 680.914 118.402 680.656 118.464 680.486C118.549 680.258 118.697 680.075 118.908 679.935C119.123 679.791 119.423 679.72 119.807 679.72C120.054 679.72 120.327 679.749 120.627 679.808L120.495 680.574C120.313 680.542 120.14 680.525 119.978 680.525C119.711 680.525 119.522 680.582 119.411 680.696C119.3 680.81 119.245 681.023 119.245 681.336V681.814H120.256V682.498H119.245V687H118.371ZM120.617 684.407C120.617 683.447 120.884 682.736 121.418 682.273C121.864 681.889 122.408 681.697 123.049 681.697C123.762 681.697 124.344 681.932 124.797 682.4C125.249 682.866 125.476 683.51 125.476 684.334C125.476 685.001 125.375 685.527 125.173 685.911C124.974 686.292 124.683 686.588 124.299 686.8C123.918 687.011 123.501 687.117 123.049 687.117C122.323 687.117 121.735 686.884 121.286 686.419C120.84 685.953 120.617 685.283 120.617 684.407ZM121.521 684.407C121.521 685.071 121.665 685.569 121.955 685.901C122.245 686.23 122.609 686.395 123.049 686.395C123.485 686.395 123.848 686.229 124.138 685.896C124.427 685.564 124.572 685.058 124.572 684.378C124.572 683.737 124.426 683.252 124.133 682.923C123.843 682.591 123.482 682.425 123.049 682.425C122.609 682.425 122.245 682.589 121.955 682.918C121.665 683.247 121.521 683.743 121.521 684.407ZM126.501 687V681.814H127.292V682.601C127.494 682.233 127.679 681.99 127.849 681.873C128.021 681.756 128.21 681.697 128.415 681.697C128.711 681.697 129.012 681.792 129.318 681.98L129.016 682.796C128.801 682.669 128.586 682.605 128.371 682.605C128.179 682.605 128.007 682.664 127.854 682.781C127.701 682.895 127.591 683.055 127.526 683.26C127.429 683.572 127.38 683.914 127.38 684.285V687H126.501ZM129.841 687V681.814H130.627V682.542C130.79 682.288 131.006 682.085 131.276 681.932C131.547 681.775 131.854 681.697 132.199 681.697C132.583 681.697 132.897 681.777 133.142 681.937C133.389 682.096 133.563 682.319 133.664 682.605C134.074 682 134.608 681.697 135.266 681.697C135.78 681.697 136.175 681.84 136.452 682.127C136.729 682.41 136.867 682.848 136.867 683.44V687H135.993V683.733C135.993 683.382 135.964 683.13 135.905 682.977C135.85 682.82 135.747 682.695 135.598 682.601C135.448 682.506 135.272 682.459 135.07 682.459C134.706 682.459 134.403 682.581 134.162 682.825C133.921 683.066 133.801 683.453 133.801 683.987V687H132.922V683.631C132.922 683.24 132.85 682.947 132.707 682.752C132.564 682.557 132.329 682.459 132.004 682.459C131.757 682.459 131.527 682.524 131.315 682.654C131.107 682.785 130.956 682.975 130.861 683.226C130.767 683.476 130.72 683.838 130.72 684.31V687H129.841Z" fill="black"/>
<!--<rect x="64.5" y="693.5" width="80" height="80" stroke="black"/>-->
</svg>
