<svg width="595" height="842" viewBox="0 0 595 842" fill="none" xmlns="http://www.w3.org/2000/svg" xmlns:xlink="http://www.w3.org/1999/xlink">
<rect width="595" height="842" fill="white"/>
<line x1="63" y1="17.5" x2="574" y2="17.5" stroke="black"/>
<line x1="63" y1="794.5" x2="574" y2="794.5" stroke="black"/>
<path d="M63.4834 31.5137C63.4834 30.3255 63.8024 29.3962 64.4404 28.7256C65.0785 28.0518 65.902 27.7148 66.9111 27.7148C67.5719 27.7148 68.1676 27.8727 68.6982 28.1885C69.2288 28.5042 69.6325 28.9453 69.9092 29.5117C70.1891 30.0749 70.3291 30.7145 70.3291 31.4307C70.3291 32.1566 70.1826 32.806 69.8896 33.3789C69.5967 33.9518 69.1816 34.3864 68.6445 34.6826C68.1074 34.9756 67.528 35.1221 66.9062 35.1221C66.2324 35.1221 65.6302 34.9593 65.0996 34.6338C64.569 34.3083 64.167 33.8639 63.8936 33.3008C63.6201 32.7376 63.4834 32.1419 63.4834 31.5137ZM64.46 31.5283C64.46 32.391 64.6911 33.0713 65.1533 33.5693C65.6188 34.0641 66.2015 34.3115 66.9014 34.3115C67.6143 34.3115 68.2002 34.0609 68.6592 33.5596C69.1214 33.0583 69.3525 32.347 69.3525 31.4258C69.3525 30.8431 69.2533 30.3353 69.0547 29.9023C68.8594 29.4661 68.5713 29.1292 68.1904 28.8916C67.8128 28.6507 67.388 28.5303 66.916 28.5303C66.2454 28.5303 65.6676 28.7614 65.1826 29.2236C64.7008 29.6826 64.46 30.4508 64.46 31.5283ZM72.2529 35H71.4375V27.8418H72.3164V30.3955C72.6875 29.93 73.1611 29.6973 73.7373 29.6973C74.0563 29.6973 74.3574 29.7624 74.6406 29.8926C74.9271 30.0195 75.1615 30.2002 75.3438 30.4346C75.5293 30.6657 75.6742 30.9456 75.7783 31.2744C75.8825 31.6032 75.9346 31.9548 75.9346 32.3291C75.9346 33.2178 75.7148 33.9046 75.2754 34.3896C74.8359 34.8747 74.3086 35.1172 73.6934 35.1172C73.0814 35.1172 72.6012 34.8617 72.2529 34.3506V35ZM72.2432 32.3682C72.2432 32.9899 72.3278 33.4391 72.4971 33.7158C72.7738 34.1683 73.1481 34.3945 73.6201 34.3945C74.0042 34.3945 74.3363 34.2285 74.6162 33.8965C74.8962 33.5612 75.0361 33.0632 75.0361 32.4023C75.0361 31.7253 74.901 31.2256 74.6309 30.9033C74.3639 30.5811 74.04 30.4199 73.6592 30.4199C73.2751 30.4199 72.943 30.5876 72.6631 30.9229C72.3831 31.2549 72.2432 31.7367 72.2432 32.3682ZM77.0039 28.8623V27.8418H77.8828V28.8623H77.0039ZM75.8906 37.0117L76.0566 36.2646C76.2324 36.3102 76.3708 36.333 76.4717 36.333C76.6507 36.333 76.7842 36.2728 76.8721 36.1523C76.96 36.0352 77.0039 35.7389 77.0039 35.2637V29.8145H77.8828V35.2832C77.8828 35.9212 77.7998 36.3656 77.6338 36.6162C77.4222 36.9417 77.0706 37.1045 76.5791 37.1045C76.3415 37.1045 76.112 37.0736 75.8906 37.0117ZM82.7852 33.3301L83.6934 33.4424C83.5501 33.973 83.2848 34.3848 82.8975 34.6777C82.5101 34.9707 82.0153 35.1172 81.4131 35.1172C80.6546 35.1172 80.0524 34.8844 79.6064 34.4189C79.1637 33.9502 78.9424 33.2943 78.9424 32.4512C78.9424 31.5788 79.167 30.9017 79.6162 30.4199C80.0654 29.9382 80.6481 29.6973 81.3643 29.6973C82.0576 29.6973 82.624 29.9333 83.0635 30.4053C83.5029 30.8773 83.7227 31.5413 83.7227 32.3975C83.7227 32.4495 83.721 32.5277 83.7178 32.6318H79.8506C79.8831 33.2015 80.0443 33.6377 80.334 33.9404C80.6237 34.2432 80.985 34.3945 81.418 34.3945C81.7402 34.3945 82.0153 34.3099 82.2432 34.1406C82.471 33.9714 82.6517 33.7012 82.7852 33.3301ZM79.8994 31.9092H82.7949C82.7559 31.473 82.6452 31.1458 82.4629 30.9277C82.1829 30.5892 81.82 30.4199 81.374 30.4199C80.9704 30.4199 80.6302 30.555 80.3535 30.8252C80.0801 31.0954 79.9287 31.4567 79.8994 31.9092ZM88.1855 33.1006L89.0498 33.2129C88.9554 33.8086 88.7129 34.2757 88.3223 34.6143C87.9349 34.9495 87.458 35.1172 86.8916 35.1172C86.182 35.1172 85.6107 34.8861 85.1777 34.4238C84.748 33.9583 84.5332 33.2926 84.5332 32.4268C84.5332 31.8669 84.626 31.377 84.8115 30.957C84.9971 30.5371 85.2786 30.223 85.6562 30.0146C86.0371 29.8031 86.4505 29.6973 86.8965 29.6973C87.4596 29.6973 87.9202 29.8405 88.2783 30.127C88.6364 30.4102 88.8659 30.8138 88.9668 31.3379L88.1123 31.4697C88.0309 31.1214 87.8861 30.8594 87.6777 30.6836C87.4727 30.5078 87.2236 30.4199 86.9307 30.4199C86.488 30.4199 86.1283 30.5794 85.8516 30.8984C85.5749 31.2142 85.4365 31.7155 85.4365 32.4023C85.4365 33.099 85.57 33.6051 85.8369 33.9209C86.1038 34.2367 86.4521 34.3945 86.8818 34.3945C87.2269 34.3945 87.515 34.2887 87.7461 34.0771C87.9772 33.8656 88.1237 33.54 88.1855 33.1006ZM91.7207 34.2139L91.8477 34.9902C91.6003 35.0423 91.3789 35.0684 91.1836 35.0684C90.8646 35.0684 90.6172 35.0179 90.4414 34.917C90.2656 34.8161 90.1419 34.6842 90.0703 34.5215C89.9987 34.3555 89.9629 34.0088 89.9629 33.4814V30.498H89.3184V29.8145H89.9629V28.5303L90.8369 28.0029V29.8145H91.7207V30.498H90.8369V33.5303C90.8369 33.7809 90.8516 33.9421 90.8809 34.0137C90.9134 34.0853 90.9639 34.1423 91.0322 34.1846C91.1038 34.2269 91.2048 34.248 91.335 34.248C91.4326 34.248 91.5612 34.2367 91.7207 34.2139ZM95.6416 35V27.8418H96.5889V35H95.6416ZM98.2637 35V27.8418H100.729C101.286 27.8418 101.711 27.876 102.004 27.9443C102.414 28.0387 102.764 28.2096 103.054 28.457C103.431 28.776 103.713 29.1846 103.898 29.6826C104.087 30.1774 104.182 30.7438 104.182 31.3818C104.182 31.9255 104.118 32.4072 103.991 32.8271C103.864 33.2471 103.701 33.5954 103.503 33.8721C103.304 34.1455 103.086 34.362 102.849 34.5215C102.614 34.6777 102.329 34.7965 101.994 34.8779C101.662 34.9593 101.28 35 100.847 35H98.2637ZM99.2109 34.1553H100.739C101.211 34.1553 101.581 34.1113 101.848 34.0234C102.118 33.9355 102.333 33.8118 102.492 33.6523C102.717 33.4277 102.891 33.1266 103.015 32.749C103.142 32.3682 103.205 31.9076 103.205 31.3672C103.205 30.6185 103.081 30.0439 102.834 29.6436C102.59 29.2399 102.292 28.9697 101.94 28.833C101.687 28.7354 101.278 28.6865 100.715 28.6865H99.2109V34.1553Z" fill="black"/>
<path d="M63.9326 64V56.8418H64.8799V64H63.9326ZM66.4424 64V58.8145H67.2334V59.5518C67.6143 58.9821 68.1644 58.6973 68.8838 58.6973C69.1963 58.6973 69.4827 58.7542 69.7432 58.8682C70.0068 58.9788 70.2038 59.1253 70.334 59.3076C70.4642 59.4899 70.5553 59.7064 70.6074 59.957C70.64 60.1198 70.6562 60.4046 70.6562 60.8115V64H69.7773V60.8457C69.7773 60.4876 69.7432 60.2207 69.6748 60.0449C69.6064 59.8659 69.4844 59.7243 69.3086 59.6201C69.1361 59.5127 68.9326 59.459 68.6982 59.459C68.3239 59.459 68 59.5778 67.7266 59.8154C67.4564 60.0531 67.3213 60.5039 67.3213 61.168V64H66.4424ZM71.6572 62.4521L72.5264 62.3154C72.5752 62.6637 72.7103 62.9307 72.9316 63.1162C73.1562 63.3018 73.4688 63.3945 73.8691 63.3945C74.2728 63.3945 74.5723 63.3132 74.7676 63.1504C74.9629 62.9844 75.0605 62.7907 75.0605 62.5693C75.0605 62.3708 74.9743 62.2145 74.8018 62.1006C74.6813 62.0225 74.3818 61.9232 73.9033 61.8027C73.2588 61.64 72.8112 61.5 72.5605 61.3828C72.3132 61.2624 72.1243 61.098 71.9941 60.8896C71.8672 60.6781 71.8037 60.4453 71.8037 60.1914C71.8037 59.9603 71.8558 59.7471 71.96 59.5518C72.0674 59.3532 72.2122 59.1888 72.3945 59.0586C72.5312 58.9577 72.7168 58.873 72.9512 58.8047C73.1888 58.7331 73.4427 58.6973 73.7129 58.6973C74.1198 58.6973 74.4762 58.7559 74.7822 58.873C75.0915 58.9902 75.3193 59.1497 75.4658 59.3516C75.6123 59.5501 75.7132 59.8171 75.7686 60.1523L74.9092 60.2695C74.8701 60.0026 74.7562 59.7943 74.5674 59.6445C74.3818 59.4948 74.1182 59.4199 73.7764 59.4199C73.3727 59.4199 73.0846 59.4867 72.9121 59.6201C72.7396 59.7536 72.6533 59.9098 72.6533 60.0889C72.6533 60.2028 72.6891 60.3053 72.7607 60.3965C72.8324 60.4909 72.9447 60.569 73.0977 60.6309C73.1855 60.6634 73.4443 60.7383 73.874 60.8555C74.4958 61.0215 74.9287 61.1582 75.1729 61.2656C75.4202 61.3698 75.6139 61.5228 75.7539 61.7246C75.8939 61.9264 75.9639 62.1771 75.9639 62.4766C75.9639 62.7695 75.8776 63.0462 75.7051 63.3066C75.5358 63.5638 75.29 63.764 74.9678 63.9072C74.6455 64.0472 74.2809 64.1172 73.874 64.1172C73.2002 64.1172 72.6859 63.9772 72.3311 63.6973C71.9795 63.4173 71.7549 63.0023 71.6572 62.4521ZM78.9277 63.2139L79.0547 63.9902C78.8073 64.0423 78.5859 64.0684 78.3906 64.0684C78.0716 64.0684 77.8242 64.0179 77.6484 63.917C77.4727 63.8161 77.349 63.6842 77.2773 63.5215C77.2057 63.3555 77.1699 63.0088 77.1699 62.4814V59.498H76.5254V58.8145H77.1699V57.5303L78.0439 57.0029V58.8145H78.9277V59.498H78.0439V62.5303C78.0439 62.7809 78.0586 62.9421 78.0879 63.0137C78.1204 63.0853 78.1709 63.1423 78.2393 63.1846C78.3109 63.2269 78.4118 63.248 78.542 63.248C78.6396 63.248 78.7682 63.2367 78.9277 63.2139ZM79.7969 57.8525V56.8418H80.6758V57.8525H79.7969ZM79.7969 64V58.8145H80.6758V64H79.7969ZM83.9375 63.2139L84.0645 63.9902C83.8171 64.0423 83.5957 64.0684 83.4004 64.0684C83.0814 64.0684 82.834 64.0179 82.6582 63.917C82.4824 63.8161 82.3587 63.6842 82.2871 63.5215C82.2155 63.3555 82.1797 63.0088 82.1797 62.4814V59.498H81.5352V58.8145H82.1797V57.5303L83.0537 57.0029V58.8145H83.9375V59.498H83.0537V62.5303C83.0537 62.7809 83.0684 62.9421 83.0977 63.0137C83.1302 63.0853 83.1807 63.1423 83.249 63.1846C83.3206 63.2269 83.4215 63.248 83.5518 63.248C83.6494 63.248 83.778 63.2367 83.9375 63.2139ZM88.2002 64V63.2383C87.7965 63.8242 87.248 64.1172 86.5547 64.1172C86.2487 64.1172 85.9622 64.0586 85.6953 63.9414C85.4316 63.8242 85.2347 63.6777 85.1045 63.502C84.9775 63.3229 84.888 63.1048 84.8359 62.8477C84.8001 62.6751 84.7822 62.4017 84.7822 62.0273V58.8145H85.6611V61.6904C85.6611 62.1494 85.679 62.4587 85.7148 62.6182C85.7702 62.8493 85.8874 63.0316 86.0664 63.165C86.2454 63.2952 86.4668 63.3604 86.7305 63.3604C86.9941 63.3604 87.2415 63.2936 87.4727 63.1602C87.7038 63.0234 87.8665 62.8395 87.9609 62.6084C88.0586 62.374 88.1074 62.0355 88.1074 61.5928V58.8145H88.9863V64H88.2002ZM92.2871 63.2139L92.4141 63.9902C92.1667 64.0423 91.9453 64.0684 91.75 64.0684C91.431 64.0684 91.1836 64.0179 91.0078 63.917C90.832 63.8161 90.7083 63.6842 90.6367 63.5215C90.5651 63.3555 90.5293 63.0088 90.5293 62.4814V59.498H89.8848V58.8145H90.5293V57.5303L91.4033 57.0029V58.8145H92.2871V59.498H91.4033V62.5303C91.4033 62.7809 91.418 62.9421 91.4473 63.0137C91.4798 63.0853 91.5303 63.1423 91.5986 63.1846C91.6702 63.2269 91.7712 63.248 91.9014 63.248C91.999 63.248 92.1276 63.2367 92.2871 63.2139ZM93.1562 57.8525V56.8418H94.0352V57.8525H93.1562ZM93.1562 64V58.8145H94.0352V64H93.1562ZM95.0508 61.4072C95.0508 60.4469 95.3177 59.7357 95.8516 59.2734C96.2975 58.8893 96.8411 58.6973 97.4824 58.6973C98.1953 58.6973 98.778 58.9316 99.2305 59.4004C99.6829 59.8659 99.9092 60.5104 99.9092 61.334C99.9092 62.0013 99.8083 62.527 99.6064 62.9111C99.4079 63.292 99.1165 63.5882 98.7324 63.7998C98.3516 64.0114 97.9349 64.1172 97.4824 64.1172C96.7565 64.1172 96.1689 63.8844 95.7197 63.4189C95.2738 62.9535 95.0508 62.2829 95.0508 61.4072ZM95.9541 61.4072C95.9541 62.0713 96.099 62.5693 96.3887 62.9014C96.6784 63.2301 97.043 63.3945 97.4824 63.3945C97.9186 63.3945 98.2816 63.2285 98.5713 62.8965C98.861 62.5645 99.0059 62.0583 99.0059 61.3779C99.0059 60.7367 98.8594 60.2516 98.5664 59.9229C98.2767 59.5908 97.9154 59.4248 97.4824 59.4248C97.043 59.4248 96.6784 59.5892 96.3887 59.918C96.099 60.2467 95.9541 60.7432 95.9541 61.4072ZM100.944 64V58.8145H101.735V59.5518C102.116 58.9821 102.666 58.6973 103.386 58.6973C103.698 58.6973 103.985 58.7542 104.245 58.8682C104.509 58.9788 104.706 59.1253 104.836 59.3076C104.966 59.4899 105.057 59.7064 105.109 59.957C105.142 60.1198 105.158 60.4046 105.158 60.8115V64H104.279V60.8457C104.279 60.4876 104.245 60.2207 104.177 60.0449C104.108 59.8659 103.986 59.7243 103.811 59.6201C103.638 59.5127 103.435 59.459 103.2 59.459C102.826 59.459 102.502 59.5778 102.229 59.8154C101.958 60.0531 101.823 60.5039 101.823 61.168V64H100.944Z" fill="black"/>
<!--<path d="M171.059 33.7256V35H166.249C166.301 34.5182 166.457 34.0625 166.718 33.6328C166.978 33.1999 167.493 32.627 168.261 31.9141C168.879 31.3379 169.258 30.9473 169.398 30.7422C169.587 30.459 169.682 30.179 169.682 29.9023C169.682 29.5964 169.599 29.362 169.433 29.1992C169.27 29.0332 169.044 28.9502 168.754 28.9502C168.467 28.9502 168.24 29.0365 168.07 29.209C167.901 29.3815 167.803 29.668 167.777 30.0684L166.41 29.9316C166.492 29.1764 166.747 28.6344 167.177 28.3057C167.606 27.9769 168.144 27.8125 168.788 27.8125C169.494 27.8125 170.049 28.0029 170.453 28.3838C170.857 28.7646 171.059 29.2383 171.059 29.8047C171.059 30.127 171 30.4346 170.883 30.7275C170.769 31.0173 170.587 31.3216 170.336 31.6406C170.17 31.8522 169.87 32.1566 169.438 32.5537C169.005 32.9508 168.729 33.2145 168.612 33.3447C168.498 33.4749 168.406 33.6019 168.334 33.7256H171.059ZM174.311 27.8125C175.004 27.8125 175.546 28.0599 175.937 28.5547C176.402 29.1406 176.635 30.1123 176.635 31.4697C176.635 32.8239 176.4 33.7972 175.932 34.3896C175.544 34.8779 175.004 35.1221 174.311 35.1221C173.614 35.1221 173.052 34.8551 172.626 34.3213C172.2 33.7842 171.986 32.8288 171.986 31.4551C171.986 30.1074 172.221 29.1374 172.689 28.5449C173.077 28.0566 173.617 27.8125 174.311 27.8125ZM174.311 28.9502C174.145 28.9502 173.996 29.0039 173.866 29.1113C173.736 29.2155 173.635 29.4043 173.563 29.6777C173.469 30.0326 173.422 30.6299 173.422 31.4697C173.422 32.3096 173.464 32.8874 173.549 33.2031C173.633 33.5156 173.739 33.724 173.866 33.8281C173.996 33.9323 174.145 33.9844 174.311 33.9844C174.477 33.9844 174.625 33.9323 174.755 33.8281C174.885 33.7207 174.986 33.5303 175.058 33.2568C175.152 32.9053 175.199 32.3096 175.199 31.4697C175.199 30.6299 175.157 30.0537 175.072 29.7412C174.988 29.4255 174.88 29.2155 174.75 29.1113C174.623 29.0039 174.477 28.9502 174.311 28.9502ZM177.04 36.9775V36.0889H182.743V36.9775H177.04ZM185.443 27.8125C186.137 27.8125 186.679 28.0599 187.069 28.5547C187.535 29.1406 187.768 30.1123 187.768 31.4697C187.768 32.8239 187.533 33.7972 187.064 34.3896C186.677 34.8779 186.137 35.1221 185.443 35.1221C184.747 35.1221 184.185 34.8551 183.759 34.3213C183.332 33.7842 183.119 32.8288 183.119 31.4551C183.119 30.1074 183.354 29.1374 183.822 28.5449C184.21 28.0566 184.75 27.8125 185.443 27.8125ZM185.443 28.9502C185.277 28.9502 185.129 29.0039 184.999 29.1113C184.869 29.2155 184.768 29.4043 184.696 29.6777C184.602 30.0326 184.555 30.6299 184.555 31.4697C184.555 32.3096 184.597 32.8874 184.682 33.2031C184.766 33.5156 184.872 33.724 184.999 33.8281C185.129 33.9323 185.277 33.9844 185.443 33.9844C185.609 33.9844 185.757 33.9323 185.888 33.8281C186.018 33.7207 186.119 33.5303 186.19 33.2568C186.285 32.9053 186.332 32.3096 186.332 31.4697C186.332 30.6299 186.29 30.0537 186.205 29.7412C186.12 29.4255 186.013 29.2155 185.883 29.1113C185.756 29.0039 185.609 28.9502 185.443 28.9502ZM191.01 27.8125C191.703 27.8125 192.245 28.0599 192.636 28.5547C193.101 29.1406 193.334 30.1123 193.334 31.4697C193.334 32.8239 193.1 33.7972 192.631 34.3896C192.243 34.8779 191.703 35.1221 191.01 35.1221C190.313 35.1221 189.752 34.8551 189.325 34.3213C188.899 33.7842 188.686 32.8288 188.686 31.4551C188.686 30.1074 188.92 29.1374 189.389 28.5449C189.776 28.0566 190.316 27.8125 191.01 27.8125ZM191.01 28.9502C190.844 28.9502 190.696 29.0039 190.565 29.1113C190.435 29.2155 190.334 29.4043 190.263 29.6777C190.168 30.0326 190.121 30.6299 190.121 31.4697C190.121 32.3096 190.163 32.8874 190.248 33.2031C190.333 33.5156 190.438 33.724 190.565 33.8281C190.696 33.9323 190.844 33.9844 191.01 33.9844C191.176 33.9844 191.324 33.9323 191.454 33.8281C191.584 33.7207 191.685 33.5303 191.757 33.2568C191.851 32.9053 191.898 32.3096 191.898 31.4697C191.898 30.6299 191.856 30.0537 191.771 29.7412C191.687 29.4255 191.579 29.2155 191.449 29.1113C191.322 29.0039 191.176 28.9502 191.01 28.9502ZM194.276 33.1592L195.644 33.0176C195.683 33.3268 195.798 33.5726 195.99 33.7549C196.182 33.9339 196.404 34.0234 196.654 34.0234C196.941 34.0234 197.183 33.9079 197.382 33.6768C197.58 33.4424 197.68 33.0908 197.68 32.6221C197.68 32.1826 197.58 31.8538 197.382 31.6357C197.187 31.4144 196.931 31.3037 196.615 31.3037C196.221 31.3037 195.868 31.4779 195.556 31.8262L194.442 31.665L195.146 27.9395H198.773V29.2236H196.186L195.971 30.4395C196.277 30.2865 196.589 30.21 196.908 30.21C197.517 30.21 198.033 30.4313 198.456 30.874C198.879 31.3167 199.091 31.8913 199.091 32.5977C199.091 33.1868 198.92 33.7126 198.578 34.1748C198.113 34.8063 197.466 35.1221 196.64 35.1221C195.979 35.1221 195.44 34.9447 195.023 34.5898C194.607 34.235 194.358 33.7581 194.276 33.1592ZM199.774 33.1006L201.103 32.9395C201.145 33.278 201.259 33.5368 201.444 33.7158C201.63 33.8949 201.854 33.9844 202.118 33.9844C202.401 33.9844 202.639 33.877 202.831 33.6621C203.026 33.4473 203.124 33.1576 203.124 32.793C203.124 32.4479 203.031 32.1745 202.846 31.9727C202.66 31.7708 202.434 31.6699 202.167 31.6699C201.991 31.6699 201.781 31.7041 201.537 31.7725L201.688 30.6543C202.06 30.6641 202.343 30.5843 202.538 30.415C202.733 30.2425 202.831 30.0146 202.831 29.7314C202.831 29.4906 202.759 29.2985 202.616 29.1553C202.473 29.012 202.283 28.9404 202.045 28.9404C201.811 28.9404 201.61 29.0218 201.444 29.1846C201.278 29.3473 201.177 29.585 201.142 29.8975L199.877 29.6826C199.965 29.2497 200.097 28.9046 200.272 28.6475C200.451 28.387 200.699 28.1836 201.015 28.0371C201.334 27.8874 201.69 27.8125 202.084 27.8125C202.758 27.8125 203.298 28.0273 203.705 28.457C204.04 28.8086 204.208 29.2057 204.208 29.6484C204.208 30.2767 203.865 30.778 203.178 31.1523C203.588 31.2402 203.915 31.4372 204.159 31.7432C204.407 32.0492 204.53 32.4186 204.53 32.8516C204.53 33.4798 204.301 34.0153 203.842 34.458C203.383 34.9007 202.812 35.1221 202.128 35.1221C201.48 35.1221 200.943 34.9365 200.517 34.5654C200.09 34.1911 199.843 33.7028 199.774 33.1006ZM206.566 31.1377C206.212 30.988 205.953 30.7829 205.79 30.5225C205.631 30.2588 205.551 29.9707 205.551 29.6582C205.551 29.1243 205.736 28.6833 206.107 28.335C206.482 27.9867 207.012 27.8125 207.699 27.8125C208.38 27.8125 208.907 27.9867 209.281 28.335C209.659 28.6833 209.848 29.1243 209.848 29.6582C209.848 29.9902 209.761 30.2865 209.589 30.5469C209.416 30.804 209.174 31.001 208.861 31.1377C209.258 31.2972 209.56 31.5299 209.765 31.8359C209.973 32.1419 210.077 32.4951 210.077 32.8955C210.077 33.5563 209.866 34.0934 209.442 34.5068C209.022 34.9202 208.463 35.127 207.763 35.127C207.112 35.127 206.57 34.9561 206.137 34.6143C205.626 34.2106 205.37 33.6572 205.37 32.9541C205.37 32.5667 205.466 32.2119 205.658 31.8896C205.85 31.5641 206.153 31.3135 206.566 31.1377ZM206.85 29.7559C206.85 30.0293 206.926 30.2425 207.079 30.3955C207.235 30.5485 207.442 30.625 207.699 30.625C207.96 30.625 208.168 30.5485 208.324 30.3955C208.48 30.2393 208.559 30.0244 208.559 29.751C208.559 29.4938 208.48 29.2887 208.324 29.1357C208.171 28.9795 207.968 28.9014 207.714 28.9014C207.45 28.9014 207.24 28.9795 207.084 29.1357C206.928 29.292 206.85 29.4987 206.85 29.7559ZM206.723 32.8223C206.723 33.1999 206.819 33.4945 207.011 33.7061C207.206 33.9176 207.449 34.0234 207.738 34.0234C208.021 34.0234 208.256 33.9225 208.441 33.7207C208.627 33.5156 208.72 33.221 208.72 32.8369C208.72 32.5016 208.625 32.2331 208.437 32.0312C208.248 31.8262 208.008 31.7236 207.719 31.7236C207.383 31.7236 207.133 31.8392 206.967 32.0703C206.804 32.3014 206.723 32.5521 206.723 32.8223ZM210.907 33.1006L212.235 32.9395C212.278 33.278 212.392 33.5368 212.577 33.7158C212.763 33.8949 212.987 33.9844 213.251 33.9844C213.534 33.9844 213.772 33.877 213.964 33.6621C214.159 33.4473 214.257 33.1576 214.257 32.793C214.257 32.4479 214.164 32.1745 213.979 31.9727C213.793 31.7708 213.567 31.6699 213.3 31.6699C213.124 31.6699 212.914 31.7041 212.67 31.7725L212.821 30.6543C213.192 30.6641 213.476 30.5843 213.671 30.415C213.866 30.2425 213.964 30.0146 213.964 29.7314C213.964 29.4906 213.892 29.2985 213.749 29.1553C213.606 29.012 213.415 28.9404 213.178 28.9404C212.943 28.9404 212.743 29.0218 212.577 29.1846C212.411 29.3473 212.31 29.585 212.274 29.8975L211.01 29.6826C211.098 29.2497 211.229 28.9046 211.405 28.6475C211.584 28.387 211.832 28.1836 212.147 28.0371C212.466 27.8874 212.823 27.8125 213.217 27.8125C213.891 27.8125 214.431 28.0273 214.838 28.457C215.173 28.8086 215.341 29.2057 215.341 29.6484C215.341 30.2767 214.997 30.778 214.311 31.1523C214.721 31.2402 215.048 31.4372 215.292 31.7432C215.539 32.0492 215.663 32.4186 215.663 32.8516C215.663 33.4798 215.434 34.0153 214.975 34.458C214.516 34.9007 213.944 35.1221 213.261 35.1221C212.613 35.1221 212.076 34.9365 211.649 34.5654C211.223 34.1911 210.976 33.7028 210.907 33.1006Z" fill="black"/>-->
<path d="M492.483 29.5137C492.483 28.3255 492.802 27.3962 493.44 26.7256C494.078 26.0518 494.902 25.7148 495.911 25.7148C496.572 25.7148 497.168 25.8727 497.698 26.1885C498.229 26.5042 498.632 26.9453 498.909 27.5117C499.189 28.0749 499.329 28.7145 499.329 29.4307C499.329 30.1566 499.183 30.806 498.89 31.3789C498.597 31.9518 498.182 32.3864 497.645 32.6826C497.107 32.9756 496.528 33.1221 495.906 33.1221C495.232 33.1221 494.63 32.9593 494.1 32.6338C493.569 32.3083 493.167 31.8639 492.894 31.3008C492.62 30.7376 492.483 30.1419 492.483 29.5137ZM493.46 29.5283C493.46 30.391 493.691 31.0713 494.153 31.5693C494.619 32.0641 495.201 32.3115 495.901 32.3115C496.614 32.3115 497.2 32.0609 497.659 31.5596C498.121 31.0583 498.353 30.347 498.353 29.4258C498.353 28.8431 498.253 28.3353 498.055 27.9023C497.859 27.4661 497.571 27.1292 497.19 26.8916C496.813 26.6507 496.388 26.5303 495.916 26.5303C495.245 26.5303 494.668 26.7614 494.183 27.2236C493.701 27.6826 493.46 28.4508 493.46 29.5283ZM501.253 33H500.438V25.8418H501.316V28.3955C501.688 27.93 502.161 27.6973 502.737 27.6973C503.056 27.6973 503.357 27.7624 503.641 27.8926C503.927 28.0195 504.161 28.2002 504.344 28.4346C504.529 28.6657 504.674 28.9456 504.778 29.2744C504.882 29.6032 504.935 29.9548 504.935 30.3291C504.935 31.2178 504.715 31.9046 504.275 32.3896C503.836 32.8747 503.309 33.1172 502.693 33.1172C502.081 33.1172 501.601 32.8617 501.253 32.3506V33ZM501.243 30.3682C501.243 30.9899 501.328 31.4391 501.497 31.7158C501.774 32.1683 502.148 32.3945 502.62 32.3945C503.004 32.3945 503.336 32.2285 503.616 31.8965C503.896 31.5612 504.036 31.0632 504.036 30.4023C504.036 29.7253 503.901 29.2256 503.631 28.9033C503.364 28.5811 503.04 28.4199 502.659 28.4199C502.275 28.4199 501.943 28.5876 501.663 28.9229C501.383 29.2549 501.243 29.7367 501.243 30.3682ZM506.004 26.8623V25.8418H506.883V26.8623H506.004ZM504.891 35.0117L505.057 34.2646C505.232 34.3102 505.371 34.333 505.472 34.333C505.651 34.333 505.784 34.2728 505.872 34.1523C505.96 34.0352 506.004 33.7389 506.004 33.2637V27.8145H506.883V33.2832C506.883 33.9212 506.8 34.3656 506.634 34.6162C506.422 34.9417 506.071 35.1045 505.579 35.1045C505.341 35.1045 505.112 35.0736 504.891 35.0117ZM511.785 31.3301L512.693 31.4424C512.55 31.973 512.285 32.3848 511.897 32.6777C511.51 32.9707 511.015 33.1172 510.413 33.1172C509.655 33.1172 509.052 32.8844 508.606 32.4189C508.164 31.9502 507.942 31.2943 507.942 30.4512C507.942 29.5788 508.167 28.9017 508.616 28.4199C509.065 27.9382 509.648 27.6973 510.364 27.6973C511.058 27.6973 511.624 27.9333 512.063 28.4053C512.503 28.8773 512.723 29.5413 512.723 30.3975C512.723 30.4495 512.721 30.5277 512.718 30.6318H508.851C508.883 31.2015 509.044 31.6377 509.334 31.9404C509.624 32.2432 509.985 32.3945 510.418 32.3945C510.74 32.3945 511.015 32.3099 511.243 32.1406C511.471 31.9714 511.652 31.7012 511.785 31.3301ZM508.899 29.9092H511.795C511.756 29.473 511.645 29.1458 511.463 28.9277C511.183 28.5892 510.82 28.4199 510.374 28.4199C509.97 28.4199 509.63 28.555 509.354 28.8252C509.08 29.0954 508.929 29.4567 508.899 29.9092ZM517.186 31.1006L518.05 31.2129C517.955 31.8086 517.713 32.2757 517.322 32.6143C516.935 32.9495 516.458 33.1172 515.892 33.1172C515.182 33.1172 514.611 32.8861 514.178 32.4238C513.748 31.9583 513.533 31.2926 513.533 30.4268C513.533 29.8669 513.626 29.377 513.812 28.957C513.997 28.5371 514.279 28.223 514.656 28.0146C515.037 27.8031 515.451 27.6973 515.896 27.6973C516.46 27.6973 516.92 27.8405 517.278 28.127C517.636 28.4102 517.866 28.8138 517.967 29.3379L517.112 29.4697C517.031 29.1214 516.886 28.8594 516.678 28.6836C516.473 28.5078 516.224 28.4199 515.931 28.4199C515.488 28.4199 515.128 28.5794 514.852 28.8984C514.575 29.2142 514.437 29.7155 514.437 30.4023C514.437 31.099 514.57 31.6051 514.837 31.9209C515.104 32.2367 515.452 32.3945 515.882 32.3945C516.227 32.3945 516.515 32.2887 516.746 32.0771C516.977 31.8656 517.124 31.54 517.186 31.1006ZM520.721 32.2139L520.848 32.9902C520.6 33.0423 520.379 33.0684 520.184 33.0684C519.865 33.0684 519.617 33.0179 519.441 32.917C519.266 32.8161 519.142 32.6842 519.07 32.5215C518.999 32.3555 518.963 32.0088 518.963 31.4814V28.498H518.318V27.8145H518.963V26.5303L519.837 26.0029V27.8145H520.721V28.498H519.837V31.5303C519.837 31.7809 519.852 31.9421 519.881 32.0137C519.913 32.0853 519.964 32.1423 520.032 32.1846C520.104 32.2269 520.205 32.248 520.335 32.248C520.433 32.248 520.561 32.2367 520.721 32.2139ZM527.732 33V32.3457C527.404 32.86 526.92 33.1172 526.282 33.1172C525.869 33.1172 525.488 33.0033 525.14 32.7754C524.795 32.5475 524.526 32.2301 524.334 31.8232C524.145 31.4131 524.051 30.9427 524.051 30.4121C524.051 29.8945 524.137 29.4258 524.31 29.0059C524.482 28.5827 524.741 28.2588 525.086 28.0342C525.431 27.8096 525.817 27.6973 526.243 27.6973C526.556 27.6973 526.834 27.764 527.078 27.8975C527.322 28.0277 527.521 28.1986 527.674 28.4102V25.8418H528.548V33H527.732ZM524.954 30.4121C524.954 31.0762 525.094 31.5726 525.374 31.9014C525.654 32.2301 525.984 32.3945 526.365 32.3945C526.749 32.3945 527.075 32.2383 527.342 31.9258C527.612 31.61 527.747 31.1299 527.747 30.4854C527.747 29.7757 527.61 29.2549 527.337 28.9229C527.063 28.5908 526.727 28.4248 526.326 28.4248C525.936 28.4248 525.608 28.5843 525.345 28.9033C525.084 29.2223 524.954 29.7253 524.954 30.4121ZM533.484 31.3301L534.393 31.4424C534.249 31.973 533.984 32.3848 533.597 32.6777C533.209 32.9707 532.715 33.1172 532.112 33.1172C531.354 33.1172 530.752 32.8844 530.306 32.4189C529.863 31.9502 529.642 31.2943 529.642 30.4512C529.642 29.5788 529.866 28.9017 530.315 28.4199C530.765 27.9382 531.347 27.6973 532.063 27.6973C532.757 27.6973 533.323 27.9333 533.763 28.4053C534.202 28.8773 534.422 29.5413 534.422 30.3975C534.422 30.4495 534.42 30.5277 534.417 30.6318H530.55C530.582 31.2015 530.743 31.6377 531.033 31.9404C531.323 32.2432 531.684 32.3945 532.117 32.3945C532.439 32.3945 532.715 32.3099 532.942 32.1406C533.17 31.9714 533.351 31.7012 533.484 31.3301ZM530.599 29.9092H533.494C533.455 29.473 533.344 29.1458 533.162 28.9277C532.882 28.5892 532.519 28.4199 532.073 28.4199C531.67 28.4199 531.329 28.555 531.053 28.8252C530.779 29.0954 530.628 29.4567 530.599 29.9092ZM537.42 32.2139L537.547 32.9902C537.299 33.0423 537.078 33.0684 536.883 33.0684C536.564 33.0684 536.316 33.0179 536.141 32.917C535.965 32.8161 535.841 32.6842 535.77 32.5215C535.698 32.3555 535.662 32.0088 535.662 31.4814V28.498H535.018V27.8145H535.662V26.5303L536.536 26.0029V27.8145H537.42V28.498H536.536V31.5303C536.536 31.7809 536.551 31.9421 536.58 32.0137C536.613 32.0853 536.663 32.1423 536.731 32.1846C536.803 32.2269 536.904 32.248 537.034 32.248C537.132 32.248 537.26 32.2367 537.42 32.2139ZM541.668 32.3604C541.342 32.637 541.028 32.8324 540.726 32.9463C540.426 33.0602 540.104 33.1172 539.759 33.1172C539.189 33.1172 538.751 32.9788 538.445 32.7021C538.139 32.4222 537.986 32.0658 537.986 31.6328C537.986 31.3789 538.043 31.1478 538.157 30.9395C538.274 30.7279 538.426 30.5586 538.611 30.4316C538.8 30.3047 539.012 30.2087 539.246 30.1436C539.419 30.098 539.679 30.054 540.027 30.0117C540.737 29.9271 541.259 29.8262 541.595 29.709C541.598 29.5885 541.6 29.512 541.6 29.4795C541.6 29.1214 541.517 28.8691 541.351 28.7227C541.126 28.5241 540.792 28.4248 540.35 28.4248C539.936 28.4248 539.63 28.498 539.432 28.6445C539.236 28.7878 539.091 29.0433 538.997 29.4111L538.138 29.2939C538.216 28.9261 538.344 28.6299 538.523 28.4053C538.702 28.1774 538.961 28.0033 539.3 27.8828C539.638 27.7591 540.031 27.6973 540.477 27.6973C540.919 27.6973 541.279 27.7493 541.556 27.8535C541.832 27.9577 542.036 28.0895 542.166 28.249C542.296 28.4053 542.387 28.6038 542.439 28.8447C542.469 28.9945 542.483 29.2646 542.483 29.6553V30.8271C542.483 31.6442 542.501 32.1618 542.537 32.3799C542.576 32.5947 542.651 32.8014 542.762 33H541.844C541.753 32.8177 541.694 32.6045 541.668 32.3604ZM541.595 30.3975C541.276 30.5277 540.797 30.6383 540.159 30.7295C539.798 30.7816 539.542 30.8402 539.393 30.9053C539.243 30.9704 539.127 31.0664 539.046 31.1934C538.965 31.3171 538.924 31.4554 538.924 31.6084C538.924 31.8428 539.012 32.0381 539.188 32.1943C539.367 32.3506 539.627 32.4287 539.969 32.4287C540.307 32.4287 540.608 32.3555 540.872 32.209C541.136 32.0592 541.329 31.8558 541.453 31.5986C541.548 31.4001 541.595 31.1071 541.595 30.7197V30.3975ZM543.855 26.8525V25.8418H544.734V26.8525H543.855ZM543.855 33V27.8145H544.734V33H543.855ZM546.058 33V25.8418H546.937V33H546.058ZM547.952 31.4521L548.821 31.3154C548.87 31.6637 549.005 31.9307 549.227 32.1162C549.451 32.3018 549.764 32.3945 550.164 32.3945C550.568 32.3945 550.867 32.3132 551.062 32.1504C551.258 31.9844 551.355 31.7907 551.355 31.5693C551.355 31.3708 551.269 31.2145 551.097 31.1006C550.976 31.0225 550.677 30.9232 550.198 30.8027C549.554 30.64 549.106 30.5 548.855 30.3828C548.608 30.2624 548.419 30.098 548.289 29.8896C548.162 29.6781 548.099 29.4453 548.099 29.1914C548.099 28.9603 548.151 28.7471 548.255 28.5518C548.362 28.3532 548.507 28.1888 548.689 28.0586C548.826 27.9577 549.012 27.873 549.246 27.8047C549.484 27.7331 549.738 27.6973 550.008 27.6973C550.415 27.6973 550.771 27.7559 551.077 27.873C551.386 27.9902 551.614 28.1497 551.761 28.3516C551.907 28.5501 552.008 28.8171 552.063 29.1523L551.204 29.2695C551.165 29.0026 551.051 28.7943 550.862 28.6445C550.677 28.4948 550.413 28.4199 550.071 28.4199C549.668 28.4199 549.38 28.4867 549.207 28.6201C549.035 28.7536 548.948 28.9098 548.948 29.0889C548.948 29.2028 548.984 29.3053 549.056 29.3965C549.127 29.4909 549.24 29.569 549.393 29.6309C549.48 29.6634 549.739 29.7383 550.169 29.8555C550.791 30.0215 551.224 30.1582 551.468 30.2656C551.715 30.3698 551.909 30.5228 552.049 30.7246C552.189 30.9264 552.259 31.1771 552.259 31.4766C552.259 31.7695 552.173 32.0462 552 32.3066C551.831 32.5638 551.585 32.764 551.263 32.9072C550.94 33.0472 550.576 33.1172 550.169 33.1172C549.495 33.1172 548.981 32.9772 548.626 32.6973C548.274 32.4173 548.05 32.0023 547.952 31.4521Z" fill="black"/>
<!--<path d="M572.527 811H571.824V806.52C571.655 806.681 571.432 806.842 571.156 807.004C570.883 807.165 570.637 807.286 570.418 807.367V806.688C570.811 806.503 571.155 806.279 571.449 806.016C571.743 805.753 571.952 805.497 572.074 805.25H572.527V811Z" fill="black"/>-->
<path d="M117.633 811V805.273H121.496V805.949H118.391V807.723H121.078V808.398H118.391V811H117.633ZM122.254 808.211C122.254 807.26 122.509 806.517 123.02 805.98C123.53 805.441 124.189 805.172 124.996 805.172C125.525 805.172 126.001 805.298 126.426 805.551C126.85 805.803 127.173 806.156 127.395 806.609C127.618 807.06 127.73 807.572 127.73 808.145C127.73 808.725 127.613 809.245 127.379 809.703C127.145 810.161 126.812 810.509 126.383 810.746C125.953 810.98 125.49 811.098 124.992 811.098C124.453 811.098 123.971 810.967 123.547 810.707C123.122 810.447 122.801 810.091 122.582 809.641C122.363 809.19 122.254 808.714 122.254 808.211ZM123.035 808.223C123.035 808.913 123.22 809.457 123.59 809.855C123.962 810.251 124.428 810.449 124.988 810.449C125.559 810.449 126.027 810.249 126.395 809.848C126.764 809.447 126.949 808.878 126.949 808.141C126.949 807.674 126.87 807.268 126.711 806.922C126.555 806.573 126.324 806.303 126.02 806.113C125.717 805.921 125.378 805.824 125 805.824C124.464 805.824 124.001 806.009 123.613 806.379C123.228 806.746 123.035 807.361 123.035 808.223ZM128.723 811V805.273H131.262C131.772 805.273 132.16 805.326 132.426 805.43C132.691 805.531 132.904 805.712 133.062 805.973C133.221 806.233 133.301 806.521 133.301 806.836C133.301 807.242 133.169 807.585 132.906 807.863C132.643 808.142 132.237 808.319 131.688 808.395C131.888 808.491 132.04 808.586 132.145 808.68C132.366 808.883 132.576 809.137 132.773 809.441L133.77 811H132.816L132.059 809.809C131.837 809.465 131.655 809.202 131.512 809.02C131.368 808.837 131.24 808.71 131.125 808.637C131.013 808.564 130.898 808.513 130.781 808.484C130.695 808.466 130.555 808.457 130.359 808.457H129.48V811H128.723ZM129.48 807.801H131.109C131.456 807.801 131.727 807.766 131.922 807.695C132.117 807.622 132.266 807.508 132.367 807.352C132.469 807.193 132.52 807.021 132.52 806.836C132.52 806.565 132.421 806.342 132.223 806.168C132.027 805.993 131.717 805.906 131.293 805.906H129.48V807.801ZM136.73 811V805.273H139.27C139.78 805.273 140.168 805.326 140.434 805.43C140.699 805.531 140.911 805.712 141.07 805.973C141.229 806.233 141.309 806.521 141.309 806.836C141.309 807.242 141.177 807.585 140.914 807.863C140.651 808.142 140.245 808.319 139.695 808.395C139.896 808.491 140.048 808.586 140.152 808.68C140.374 808.883 140.583 809.137 140.781 809.441L141.777 811H140.824L140.066 809.809C139.845 809.465 139.663 809.202 139.52 809.02C139.376 808.837 139.247 808.71 139.133 808.637C139.021 808.564 138.906 808.513 138.789 808.484C138.703 808.466 138.562 808.457 138.367 808.457H137.488V811H136.73ZM137.488 807.801H139.117C139.464 807.801 139.734 807.766 139.93 807.695C140.125 807.622 140.273 807.508 140.375 807.352C140.477 807.193 140.527 807.021 140.527 806.836C140.527 806.565 140.428 806.342 140.23 806.168C140.035 805.993 139.725 805.906 139.301 805.906H137.488V807.801ZM142.516 811V805.273H146.656V805.949H143.273V807.703H146.441V808.375H143.273V810.324H146.789V811H142.516ZM147.578 809.16L148.293 809.098C148.327 809.384 148.405 809.62 148.527 809.805C148.652 809.987 148.845 810.135 149.105 810.25C149.366 810.362 149.659 810.418 149.984 810.418C150.273 810.418 150.529 810.375 150.75 810.289C150.971 810.203 151.135 810.086 151.242 809.938C151.352 809.786 151.406 809.622 151.406 809.445C151.406 809.266 151.354 809.109 151.25 808.977C151.146 808.841 150.974 808.728 150.734 808.637C150.581 808.577 150.241 808.484 149.715 808.359C149.189 808.232 148.82 808.112 148.609 808C148.336 807.857 148.132 807.68 147.996 807.469C147.863 807.255 147.797 807.017 147.797 806.754C147.797 806.465 147.879 806.195 148.043 805.945C148.207 805.693 148.447 805.501 148.762 805.371C149.077 805.241 149.427 805.176 149.812 805.176C150.237 805.176 150.611 805.245 150.934 805.383C151.259 805.518 151.509 805.719 151.684 805.984C151.858 806.25 151.952 806.551 151.965 806.887L151.238 806.941C151.199 806.579 151.066 806.306 150.84 806.121C150.616 805.936 150.284 805.844 149.844 805.844C149.385 805.844 149.051 805.928 148.84 806.098C148.632 806.264 148.527 806.466 148.527 806.703C148.527 806.909 148.602 807.078 148.75 807.211C148.896 807.344 149.276 807.48 149.891 807.621C150.508 807.759 150.931 807.88 151.16 807.984C151.493 808.138 151.74 808.333 151.898 808.57C152.057 808.805 152.137 809.076 152.137 809.383C152.137 809.688 152.049 809.975 151.875 810.246C151.701 810.514 151.449 810.724 151.121 810.875C150.796 811.023 150.428 811.098 150.02 811.098C149.501 811.098 149.066 811.022 148.715 810.871C148.366 810.72 148.091 810.493 147.891 810.191C147.693 809.887 147.589 809.543 147.578 809.16ZM153.188 811V805.273H157.328V805.949H153.945V807.703H157.113V808.375H153.945V810.324H157.461V811H153.188ZM157.879 811L160.078 805.273H160.895L163.238 811H162.375L161.707 809.266H159.312L158.684 811H157.879ZM159.531 808.648H161.473L160.875 807.062C160.693 806.581 160.557 806.185 160.469 805.875C160.396 806.242 160.293 806.607 160.16 806.969L159.531 808.648ZM163.855 811V805.273H166.395C166.905 805.273 167.293 805.326 167.559 805.43C167.824 805.531 168.036 805.712 168.195 805.973C168.354 806.233 168.434 806.521 168.434 806.836C168.434 807.242 168.302 807.585 168.039 807.863C167.776 808.142 167.37 808.319 166.82 808.395C167.021 808.491 167.173 808.586 167.277 808.68C167.499 808.883 167.708 809.137 167.906 809.441L168.902 811H167.949L167.191 809.809C166.97 809.465 166.788 809.202 166.645 809.02C166.501 808.837 166.372 808.71 166.258 808.637C166.146 808.564 166.031 808.513 165.914 808.484C165.828 808.466 165.688 808.457 165.492 808.457H164.613V811H163.855ZM164.613 807.801H166.242C166.589 807.801 166.859 807.766 167.055 807.695C167.25 807.622 167.398 807.508 167.5 807.352C167.602 807.193 167.652 807.021 167.652 806.836C167.652 806.565 167.553 806.342 167.355 806.168C167.16 805.993 166.85 805.906 166.426 805.906H164.613V807.801ZM173.711 808.992L174.469 809.184C174.31 809.806 174.023 810.281 173.609 810.609C173.198 810.935 172.694 811.098 172.098 811.098C171.48 811.098 170.978 810.973 170.59 810.723C170.204 810.47 169.91 810.105 169.707 809.629C169.507 809.152 169.406 808.641 169.406 808.094C169.406 807.497 169.52 806.978 169.746 806.535C169.975 806.09 170.299 805.753 170.719 805.523C171.141 805.292 171.604 805.176 172.109 805.176C172.682 805.176 173.164 805.322 173.555 805.613C173.945 805.905 174.217 806.315 174.371 806.844L173.625 807.02C173.492 806.603 173.299 806.299 173.047 806.109C172.794 805.919 172.477 805.824 172.094 805.824C171.654 805.824 171.285 805.93 170.988 806.141C170.694 806.352 170.487 806.635 170.367 806.992C170.247 807.346 170.188 807.712 170.188 808.09C170.188 808.577 170.258 809.003 170.398 809.367C170.542 809.729 170.763 810 171.062 810.18C171.362 810.359 171.686 810.449 172.035 810.449C172.46 810.449 172.819 810.327 173.113 810.082C173.408 809.837 173.607 809.474 173.711 808.992ZM175.43 811V805.273H176.188V807.625H179.164V805.273H179.922V811H179.164V808.301H176.188V811H175.43ZM183.184 808.211C183.184 807.26 183.439 806.517 183.949 805.98C184.46 805.441 185.118 805.172 185.926 805.172C186.454 805.172 186.931 805.298 187.355 805.551C187.78 805.803 188.103 806.156 188.324 806.609C188.548 807.06 188.66 807.572 188.66 808.145C188.66 808.725 188.543 809.245 188.309 809.703C188.074 810.161 187.742 810.509 187.312 810.746C186.883 810.98 186.419 811.098 185.922 811.098C185.383 811.098 184.901 810.967 184.477 810.707C184.052 810.447 183.73 810.091 183.512 809.641C183.293 809.19 183.184 808.714 183.184 808.211ZM183.965 808.223C183.965 808.913 184.15 809.457 184.52 809.855C184.892 810.251 185.358 810.449 185.918 810.449C186.488 810.449 186.957 810.249 187.324 809.848C187.694 809.447 187.879 808.878 187.879 808.141C187.879 807.674 187.799 807.268 187.641 806.922C187.484 806.573 187.254 806.303 186.949 806.113C186.647 805.921 186.307 805.824 185.93 805.824C185.393 805.824 184.931 806.009 184.543 806.379C184.158 806.746 183.965 807.361 183.965 808.223ZM189.633 811V805.273H190.41L193.418 809.77V805.273H194.145V811H193.367L190.359 806.5V811H189.633ZM195.391 811V805.273H196.148V810.324H198.969V811H195.391ZM200.895 811V808.574L198.688 805.273H199.609L200.738 807C200.947 807.323 201.141 807.646 201.32 807.969C201.492 807.669 201.701 807.332 201.945 806.957L203.055 805.273H203.938L201.652 808.574V811H200.895Z" fill="black"/>
<path d="M63.6562 811V805.273H65.6289C66.0742 805.273 66.4141 805.301 66.6484 805.355C66.9766 805.431 67.2565 805.568 67.4883 805.766C67.7904 806.021 68.0156 806.348 68.1641 806.746C68.3151 807.142 68.3906 807.595 68.3906 808.105C68.3906 808.54 68.3398 808.926 68.2383 809.262C68.1367 809.598 68.0065 809.876 67.8477 810.098C67.6888 810.316 67.5143 810.49 67.3242 810.617C67.1367 810.742 66.9089 810.837 66.6406 810.902C66.375 810.967 66.069 811 65.7227 811H63.6562ZM64.4141 810.324H65.6367C66.0143 810.324 66.3099 810.289 66.5234 810.219C66.7396 810.148 66.9115 810.049 67.0391 809.922C67.2188 809.742 67.3581 809.501 67.457 809.199C67.5586 808.895 67.6094 808.526 67.6094 808.094C67.6094 807.495 67.5104 807.035 67.3125 806.715C67.1172 806.392 66.8789 806.176 66.5977 806.066C66.3945 805.988 66.0677 805.949 65.6172 805.949H64.4141V810.324ZM69.3516 806.082V805.273H70.0547V806.082H69.3516ZM69.3516 811V806.852H70.0547V811H69.3516ZM71 811.344L71.6836 811.445C71.7122 811.656 71.7917 811.81 71.9219 811.906C72.0964 812.036 72.3346 812.102 72.6367 812.102C72.9622 812.102 73.2135 812.036 73.3906 811.906C73.5677 811.776 73.6875 811.594 73.75 811.359C73.7865 811.216 73.8034 810.915 73.8008 810.457C73.4935 810.819 73.1107 811 72.6523 811C72.082 811 71.6406 810.794 71.3281 810.383C71.0156 809.971 70.8594 809.478 70.8594 808.902C70.8594 808.507 70.931 808.142 71.0742 807.809C71.2174 807.473 71.4245 807.214 71.6953 807.031C71.9688 806.849 72.2891 806.758 72.6562 806.758C73.1458 806.758 73.5495 806.956 73.8672 807.352V806.852H74.5156V810.438C74.5156 811.083 74.4492 811.54 74.3164 811.809C74.1862 812.079 73.9779 812.293 73.6914 812.449C73.4076 812.605 73.0573 812.684 72.6406 812.684C72.1458 812.684 71.7461 812.572 71.4414 812.348C71.1367 812.126 70.9896 811.792 71 811.344ZM71.582 808.852C71.582 809.396 71.6901 809.793 71.9062 810.043C72.1224 810.293 72.3932 810.418 72.7188 810.418C73.0417 810.418 73.3125 810.294 73.5312 810.047C73.75 809.797 73.8594 809.406 73.8594 808.875C73.8594 808.367 73.7461 807.984 73.5195 807.727C73.2956 807.469 73.0247 807.34 72.707 807.34C72.3945 807.34 72.1289 807.467 71.9102 807.723C71.6914 807.975 71.582 808.352 71.582 808.852ZM75.5859 806.082V805.273H76.2891V806.082H75.5859ZM75.5859 811V806.852H76.2891V811H75.5859ZM78.8984 810.371L79 810.992C78.8021 811.034 78.625 811.055 78.4688 811.055C78.2135 811.055 78.0156 811.014 77.875 810.934C77.7344 810.853 77.6354 810.747 77.5781 810.617C77.5208 810.484 77.4922 810.207 77.4922 809.785V807.398H76.9766V806.852H77.4922V805.824L78.1914 805.402V806.852H78.8984V807.398H78.1914V809.824C78.1914 810.025 78.2031 810.154 78.2266 810.211C78.2526 810.268 78.293 810.314 78.3477 810.348C78.4049 810.382 78.4857 810.398 78.5898 810.398C78.668 810.398 78.7708 810.389 78.8984 810.371ZM82.2969 810.488C82.0365 810.71 81.7852 810.866 81.543 810.957C81.3034 811.048 81.0456 811.094 80.7695 811.094C80.3138 811.094 79.9635 810.983 79.7188 810.762C79.474 810.538 79.3516 810.253 79.3516 809.906C79.3516 809.703 79.3971 809.518 79.4883 809.352C79.582 809.182 79.7031 809.047 79.8516 808.945C80.0026 808.844 80.1719 808.767 80.3594 808.715C80.4974 808.678 80.7057 808.643 80.9844 808.609C81.5521 808.542 81.9701 808.461 82.2383 808.367C82.2409 808.271 82.2422 808.21 82.2422 808.184C82.2422 807.897 82.1758 807.695 82.043 807.578C81.8633 807.419 81.5964 807.34 81.2422 807.34C80.9115 807.34 80.6667 807.398 80.5078 807.516C80.3516 807.63 80.2357 807.835 80.1602 808.129L79.4727 808.035C79.5352 807.741 79.638 807.504 79.7812 807.324C79.9245 807.142 80.1315 807.003 80.4023 806.906C80.6732 806.807 80.987 806.758 81.3438 806.758C81.6979 806.758 81.9857 806.799 82.207 806.883C82.4284 806.966 82.5911 807.072 82.6953 807.199C82.7995 807.324 82.8724 807.483 82.9141 807.676C82.9375 807.796 82.9492 808.012 82.9492 808.324V809.262C82.9492 809.915 82.9635 810.329 82.9922 810.504C83.0234 810.676 83.0833 810.841 83.1719 811H82.4375C82.3646 810.854 82.3177 810.684 82.2969 810.488ZM82.2383 808.918C81.9831 809.022 81.6003 809.111 81.0898 809.184C80.8008 809.225 80.5964 809.272 80.4766 809.324C80.3568 809.376 80.2643 809.453 80.1992 809.555C80.1341 809.654 80.1016 809.764 80.1016 809.887C80.1016 810.074 80.1719 810.23 80.3125 810.355C80.4557 810.48 80.6641 810.543 80.9375 810.543C81.2083 810.543 81.4492 810.484 81.6602 810.367C81.8711 810.247 82.026 810.085 82.125 809.879C82.2005 809.72 82.2383 809.486 82.2383 809.176V808.918ZM84.0273 811V805.273H84.7305V811H84.0273ZM88.1094 811V805.273H90.2578C90.6953 805.273 91.0456 805.332 91.3086 805.449C91.5742 805.564 91.7812 805.742 91.9297 805.984C92.0807 806.224 92.1562 806.475 92.1562 806.738C92.1562 806.983 92.0898 807.214 91.957 807.43C91.8242 807.646 91.6237 807.82 91.3555 807.953C91.7018 808.055 91.9674 808.228 92.1523 808.473C92.3398 808.717 92.4336 809.007 92.4336 809.34C92.4336 809.608 92.3763 809.858 92.2617 810.09C92.1497 810.319 92.0104 810.496 91.8438 810.621C91.6771 810.746 91.4674 810.841 91.2148 810.906C90.9648 810.969 90.6576 811 90.293 811H88.1094ZM88.8672 807.68H90.1055C90.4414 807.68 90.6823 807.658 90.8281 807.613C91.0208 807.556 91.1654 807.461 91.2617 807.328C91.3607 807.195 91.4102 807.029 91.4102 806.828C91.4102 806.638 91.3646 806.471 91.2734 806.328C91.1823 806.182 91.0521 806.083 90.8828 806.031C90.7135 805.977 90.4232 805.949 90.0117 805.949H88.8672V807.68ZM88.8672 810.324H90.293C90.5378 810.324 90.7096 810.315 90.8086 810.297C90.9831 810.266 91.1289 810.214 91.2461 810.141C91.3633 810.068 91.4596 809.962 91.5352 809.824C91.6107 809.684 91.6484 809.522 91.6484 809.34C91.6484 809.126 91.5938 808.941 91.4844 808.785C91.375 808.626 91.2227 808.516 91.0273 808.453C90.8346 808.388 90.556 808.355 90.1914 808.355H88.8672V810.324ZM96.2266 809.664L96.9531 809.754C96.8385 810.178 96.6263 810.508 96.3164 810.742C96.0065 810.977 95.6107 811.094 95.1289 811.094C94.5221 811.094 94.0404 810.908 93.6836 810.535C93.3294 810.16 93.1523 809.635 93.1523 808.961C93.1523 808.263 93.332 807.721 93.6914 807.336C94.0508 806.951 94.5169 806.758 95.0898 806.758C95.6445 806.758 96.0977 806.947 96.4492 807.324C96.8008 807.702 96.9766 808.233 96.9766 808.918C96.9766 808.96 96.9753 809.022 96.9727 809.105H93.8789C93.9049 809.561 94.0339 809.91 94.2656 810.152C94.4974 810.395 94.7865 810.516 95.1328 810.516C95.3906 810.516 95.6107 810.448 95.793 810.312C95.9753 810.177 96.1198 809.961 96.2266 809.664ZM93.918 808.527H96.2344C96.2031 808.178 96.1146 807.917 95.9688 807.742C95.7448 807.471 95.4544 807.336 95.0977 807.336C94.7747 807.336 94.5026 807.444 94.2812 807.66C94.0625 807.876 93.9414 808.165 93.918 808.527ZM97.8398 811V806.852H98.4727V807.441C98.7773 806.986 99.2174 806.758 99.793 806.758C100.043 806.758 100.272 806.803 100.48 806.895C100.691 806.983 100.849 807.1 100.953 807.246C101.057 807.392 101.13 807.565 101.172 807.766C101.198 807.896 101.211 808.124 101.211 808.449V811H100.508V808.477C100.508 808.19 100.48 807.977 100.426 807.836C100.371 807.693 100.273 807.579 100.133 807.496C99.9948 807.41 99.832 807.367 99.6445 807.367C99.3451 807.367 99.0859 807.462 98.8672 807.652C98.651 807.842 98.543 808.203 98.543 808.734V811H97.8398ZM102.297 806.082V805.273H103V806.082H102.297ZM102.297 811V806.852H103V811H102.297ZM104.074 811V806.852H104.707V807.441C105.012 806.986 105.452 806.758 106.027 806.758C106.277 806.758 106.507 806.803 106.715 806.895C106.926 806.983 107.083 807.1 107.188 807.246C107.292 807.392 107.365 807.565 107.406 807.766C107.432 807.896 107.445 808.124 107.445 808.449V811H106.742V808.477C106.742 808.19 106.715 807.977 106.66 807.836C106.605 807.693 106.508 807.579 106.367 807.496C106.229 807.41 106.066 807.367 105.879 807.367C105.579 807.367 105.32 807.462 105.102 807.652C104.885 807.842 104.777 808.203 104.777 808.734V811H104.074Z" fill="black"/>

<!--<rect x="493.5" y="39.5" width="80" height="80" stroke="black"/>-->
<defs>

</defs>
</svg>
